M48
; DRILL file {KiCad 8.0.0} date 2024-08-20T19:28:31+0200
; FORMAT={-:-/ absolute / inch / decimal}
; #@! TF.CreationDate,2024-08-20T19:28:31+02:00
; #@! TF.GenerationSoftware,Kicad,Pcbnew,8.0.0
; #@! TF.FileFunction,Plated,1,2,PTH
FMAT,2
INCH
; #@! TA.AperFunction,Plated,PTH,ComponentDrill
T1C0.0394
; #@! TA.AperFunction,Plated,PTH,ComponentDrill
T2C0.0512
; #@! TA.AperFunction,Plated,PTH,ComponentDrill
T3C0.0598
; #@! TA.AperFunction,Plated,PTH,ComponentDrill
T4C0.1181
%
G90
G05
T1
X1.6868Y-0.9085
X1.6868Y-1.0085
X1.6868Y-1.1085
X2.4193Y-0.8898
X2.4193Y-0.9898
X2.4193Y-1.0898
X2.4667Y-1.4502
X2.5667Y-1.4502
X3.1465Y-0.8591
X3.1465Y-0.9575
X3.1465Y-1.0559
X3.1465Y-1.1543
X3.1465Y-1.2528
X3.1465Y-1.3512
X3.1465Y-1.4496
X3.1465Y-1.548
X3.1492Y-3.1636
X3.1492Y-3.2636
X3.1492Y-3.3636
X3.3932Y-2.7086
X3.3932Y-2.8086
X3.4693Y-3.1567
X3.4693Y-3.2567
X3.4693Y-3.3567
X3.4693Y-3.4567
X3.4932Y-2.7086
X3.4932Y-2.8086
X3.5932Y-2.7086
X3.5932Y-2.8086
X3.6932Y-2.7086
X3.6932Y-2.8086
X3.7932Y-2.7086
X3.7932Y-2.8086
X3.8932Y-2.7086
X3.8932Y-2.8086
X3.9932Y-2.7086
X3.9932Y-2.8086
X4.0932Y-2.7086
X4.0932Y-2.8086
X4.1504Y-0.8591
X4.1504Y-0.9575
X4.1504Y-1.0559
X4.1504Y-1.1543
X4.1504Y-1.2528
X4.1504Y-1.3512
X4.1504Y-1.4496
X4.1504Y-1.548
X4.1932Y-2.7086
X4.1932Y-2.8086
X4.2932Y-2.7086
X4.2932Y-2.8086
X4.3932Y-2.7086
X4.3932Y-2.8086
X4.4932Y-2.7086
X4.4932Y-2.8086
X4.5932Y-2.7086
X4.5932Y-2.8086
X4.6932Y-2.7086
X4.6932Y-2.8086
X4.7932Y-2.7086
X4.7932Y-2.8086
X4.8932Y-2.7086
X4.8932Y-2.8086
X4.9932Y-2.7086
X4.9932Y-2.8086
X5.0932Y-2.7086
X5.0932Y-2.8086
X5.1932Y-2.7086
X5.1932Y-2.8086
X5.2932Y-2.7086
X5.2932Y-2.8086
T2
X1.5056Y-1.7716
X1.8599Y-3.7794
X2.2143Y-3.7794
X2.5686Y-1.7716
T3
X2.0146Y-4.3724
X2.2146Y-4.3724
X2.5264Y-4.3724
X2.7264Y-4.3724
T4
X3.0626Y-4.3618
X3.0665Y-3.8461
X5.665Y-4.3579
X5.6689Y-3.8421
M30
