%TF.GenerationSoftware,KiCad,Pcbnew,8.0.0*%
%TF.CreationDate,2024-08-20T19:28:26+02:00*%
%TF.ProjectId,MK1,4d4b312e-6b69-4636-9164-5f7063625858,rev?*%
%TF.SameCoordinates,Original*%
%TF.FileFunction,Copper,L2,Bot*%
%TF.FilePolarity,Positive*%
%FSLAX46Y46*%
G04 Gerber Fmt 4.6, Leading zero omitted, Abs format (unit mm)*
G04 Created by KiCad (PCBNEW 8.0.0) date 2024-08-20 19:28:26*
%MOMM*%
%LPD*%
G01*
G04 APERTURE LIST*
%TA.AperFunction,ComponentPad*%
%ADD10O,1.700000X1.700000*%
%TD*%
%TA.AperFunction,ComponentPad*%
%ADD11R,1.700000X1.700000*%
%TD*%
%TA.AperFunction,ComponentPad*%
%ADD12C,2.000000*%
%TD*%
%TA.AperFunction,ComponentPad*%
%ADD13C,3.000000*%
%TD*%
%TA.AperFunction,ComponentPad*%
%ADD14R,3.000000X3.000000*%
%TD*%
%TA.AperFunction,ComponentPad*%
%ADD15C,1.800000*%
%TD*%
%TA.AperFunction,ComponentPad*%
%ADD16R,1.800000X1.800000*%
%TD*%
%TA.AperFunction,ComponentPad*%
%ADD17O,2.300000X2.000000*%
%TD*%
%TA.AperFunction,ComponentPad*%
%ADD18R,2.300000X2.000000*%
%TD*%
%TA.AperFunction,ComponentPad*%
%ADD19C,1.000000*%
%TD*%
%TA.AperFunction,Conductor*%
%ADD20C,0.400000*%
%TD*%
%TA.AperFunction,Conductor*%
%ADD21C,1.200000*%
%TD*%
%TA.AperFunction,Conductor*%
%ADD22C,2.000000*%
%TD*%
G04 APERTURE END LIST*
D10*
%TO.P,3.3V_Relais1,1,3.3V*%
%TO.N,Net-(3.3V_Relais1-3.3V)*%
X61450000Y-27680000D03*
%TO.P,3.3V_Relais1,2,GPIO*%
%TO.N,Net-(3.3V_Relais1-GPIO)*%
X61450000Y-25140000D03*
D11*
%TO.P,3.3V_Relais1,3,GND*%
%TO.N,GND*%
X61450000Y-22600000D03*
%TD*%
D10*
%TO.P,power_out1,2,DC5V*%
%TO.N,Net-(PS1-+Vout)*%
X65195000Y-36835000D03*
D11*
%TO.P,power_out1,1,GND*%
%TO.N,GND*%
X62655000Y-36835000D03*
%TD*%
D10*
%TO.P,J1,40,GPIO21/SCLK1*%
%TO.N,Net-(J1-GPIO21{slash}SCLK1)*%
X134447500Y-71337500D03*
%TO.P,J1,39,GND*%
%TO.N,GND*%
X134447500Y-68797500D03*
%TO.P,J1,38,GPIO20/MOSI1*%
%TO.N,Net-(J1-GPIO20{slash}MOSI1)*%
X131907500Y-71337500D03*
%TO.P,J1,37,GPIO26*%
%TO.N,unconnected-(J1-GPIO26-Pad37)*%
X131907500Y-68797500D03*
%TO.P,J1,36,GPIO16*%
%TO.N,Net-(J1-GPIO16)*%
X129367500Y-71337500D03*
%TO.P,J1,35,GPIO19/MISO1*%
%TO.N,unconnected-(J1-GPIO19{slash}MISO1-Pad35)*%
X129367500Y-68797500D03*
%TO.P,J1,34,GND*%
%TO.N,GND*%
X126827500Y-71337500D03*
%TO.P,J1,33,PWM1/GPIO13*%
%TO.N,unconnected-(J1-PWM1{slash}GPIO13-Pad33)*%
X126827500Y-68797500D03*
%TO.P,J1,32,PWM0/GPIO12*%
%TO.N,unconnected-(J1-PWM0{slash}GPIO12-Pad32)*%
X124287500Y-71337500D03*
%TO.P,J1,31,GCLK2/GPIO6*%
%TO.N,unconnected-(J1-GCLK2{slash}GPIO6-Pad31)*%
X124287500Y-68797500D03*
%TO.P,J1,30,GND*%
%TO.N,GND*%
X121747500Y-71337500D03*
%TO.P,J1,29,GCLK1/GPIO5*%
%TO.N,unconnected-(J1-GCLK1{slash}GPIO5-Pad29)*%
X121747500Y-68797500D03*
%TO.P,J1,28,ID_SC/GPIO1*%
%TO.N,unconnected-(J1-ID_SC{slash}GPIO1-Pad28)*%
X119207500Y-71337500D03*
%TO.P,J1,27,ID_SD/GPIO0*%
%TO.N,unconnected-(J1-ID_SD{slash}GPIO0-Pad27)*%
X119207500Y-68797500D03*
%TO.P,J1,26,~{CE1}/GPIO7*%
%TO.N,unconnected-(J1-~{CE1}{slash}GPIO7-Pad26)*%
X116667500Y-71337500D03*
%TO.P,J1,25,GND*%
%TO.N,GND*%
X116667500Y-68797500D03*
%TO.P,J1,24,~{CE0}/GPIO8*%
%TO.N,Net-(J1-~{CE0}{slash}GPIO8)*%
X114127500Y-71337500D03*
%TO.P,J1,23,SCLK0/GPIO11*%
%TO.N,Net-(J1-SCLK0{slash}GPIO11)*%
X114127500Y-68797500D03*
%TO.P,J1,22,GPIO25*%
%TO.N,Net-(J1-GPIO25)*%
X111587500Y-71337500D03*
%TO.P,J1,21,MISO0/GPIO9*%
%TO.N,Net-(J1-MISO0{slash}GPIO9)*%
X111587500Y-68797500D03*
%TO.P,J1,20,GND*%
%TO.N,GND*%
X109047500Y-71337500D03*
%TO.P,J1,19,MOSI0/GPIO10*%
%TO.N,Net-(J1-MOSI0{slash}GPIO10)*%
X109047500Y-68797500D03*
%TO.P,J1,18,GPIO24*%
%TO.N,unconnected-(J1-GPIO24-Pad18)*%
X106507500Y-71337500D03*
%TO.P,J1,17,3V3*%
%TO.N,Net-(J1-3V3-Pad1)*%
X106507500Y-68797500D03*
%TO.P,J1,16,GPIO23*%
%TO.N,unconnected-(J1-GPIO23-Pad16)*%
X103967500Y-71337500D03*
%TO.P,J1,15,GPIO22*%
%TO.N,Net-(J1-GPIO22)*%
X103967500Y-68797500D03*
%TO.P,J1,14,GND*%
%TO.N,GND*%
X101427500Y-71337500D03*
%TO.P,J1,13,GPIO27*%
%TO.N,unconnected-(J1-GPIO27-Pad13)*%
X101427500Y-68797500D03*
%TO.P,J1,12,GPIO18/PWM0*%
%TO.N,unconnected-(J1-GPIO18{slash}PWM0-Pad12)*%
X98887500Y-71337500D03*
%TO.P,J1,11,GPIO17*%
%TO.N,unconnected-(J1-GPIO17-Pad11)*%
X98887500Y-68797500D03*
%TO.P,J1,10,GPIO15/RXD*%
%TO.N,unconnected-(J1-GPIO15{slash}RXD-Pad10)*%
X96347500Y-71337500D03*
%TO.P,J1,9,GND*%
%TO.N,GND*%
X96347500Y-68797500D03*
%TO.P,J1,8,GPIO14/TXD*%
%TO.N,unconnected-(J1-GPIO14{slash}TXD-Pad8)*%
X93807500Y-71337500D03*
%TO.P,J1,7,GCLK0/GPIO4*%
%TO.N,Net-(J1-GCLK0{slash}GPIO4)*%
X93807500Y-68797500D03*
%TO.P,J1,6,GND*%
%TO.N,GND*%
X91267500Y-71337500D03*
%TO.P,J1,5,SCL/GPIO3*%
%TO.N,unconnected-(J1-SCL{slash}GPIO3-Pad5)*%
X91267500Y-68797500D03*
%TO.P,J1,4,5V*%
%TO.N,Net-(PS1-+Vout)*%
X88727500Y-71337500D03*
%TO.P,J1,3,SDA/GPIO2*%
%TO.N,Net-(3.3V_Relais1-GPIO)*%
X88727500Y-68797500D03*
%TO.P,J1,2,5V*%
%TO.N,Net-(PS1-+Vout)*%
X86187500Y-71337500D03*
D11*
%TO.P,J1,1,3V3*%
%TO.N,Net-(J1-3V3-Pad1)*%
X86187500Y-68797500D03*
%TD*%
D12*
%TO.P,LoRa-module1,16,GND*%
%TO.N,GND*%
X105420000Y-21820000D03*
%TO.P,LoRa-module1,15,~{NSS}*%
%TO.N,Net-(J1-~{CE0}{slash}GPIO8)*%
X105420000Y-24320000D03*
%TO.P,LoRa-module1,14,MOSI*%
%TO.N,Net-(J1-MOSI0{slash}GPIO10)*%
X105420000Y-26820000D03*
%TO.P,LoRa-module1,13,MISO*%
%TO.N,Net-(J1-MISO0{slash}GPIO9)*%
X105420000Y-29320000D03*
%TO.P,LoRa-module1,12,SCK*%
%TO.N,Net-(J1-SCLK0{slash}GPIO11)*%
X105420000Y-31820000D03*
%TO.P,LoRa-module1,11,DIO5*%
%TO.N,unconnected-(LoRa-module1-DIO5-Pad11)*%
X105420000Y-34320000D03*
%TO.P,LoRa-module1,10,DIO4*%
%TO.N,unconnected-(LoRa-module1-DIO4-Pad10)*%
X105420000Y-36820000D03*
%TO.P,LoRa-module1,9,GND*%
%TO.N,GND*%
X105420000Y-39320000D03*
%TO.P,LoRa-module1,8,DIO3*%
%TO.N,unconnected-(LoRa-module1-DIO3-Pad8)*%
X79920000Y-39320000D03*
%TO.P,LoRa-module1,7,DIO2*%
%TO.N,unconnected-(LoRa-module1-DIO2-Pad7)*%
X79920000Y-36820000D03*
%TO.P,LoRa-module1,6,DIO1*%
%TO.N,unconnected-(LoRa-module1-DIO1-Pad6)*%
X79920000Y-34320000D03*
%TO.P,LoRa-module1,5,DIO0*%
%TO.N,Net-(J1-GCLK0{slash}GPIO4)*%
X79920000Y-31820000D03*
%TO.P,LoRa-module1,4,~{RESET}*%
%TO.N,Net-(J1-GPIO22)*%
X79920000Y-29320000D03*
%TO.P,LoRa-module1,3,VDD*%
%TO.N,Net-(3.3V_Relais1-3.3V)*%
X79920000Y-26820000D03*
%TO.P,LoRa-module1,2,GND*%
%TO.N,GND*%
X79920000Y-24320000D03*
%TO.P,LoRa-module1,1,GND*%
X79920000Y-21820000D03*
%TD*%
D13*
%TO.P,AC220V_inlet1,2,N*%
%TO.N,Net-(AC220V_inlet1-N)*%
X56250000Y-111060000D03*
D14*
%TO.P,AC220V_inlet1,1,AC*%
%TO.N,Net-(AC220V_inlet1-AC)*%
X51170000Y-111060000D03*
%TD*%
D15*
%TO.P,U2,3,5V_IN*%
%TO.N,Net-(PS1-+Vout)*%
X42845000Y-28155000D03*
%TO.P,U2,2,3.3V_OUT*%
%TO.N,Net-(3.3V_Relais1-3.3V)*%
X42845000Y-25615000D03*
D16*
%TO.P,U2,1,GND*%
%TO.N,GND*%
X42845000Y-23075000D03*
%TD*%
D10*
%TO.P,LED_traffic_light1,4,G*%
%TO.N,Net-(J1-GPIO21{slash}SCLK1)*%
X88120000Y-87800000D03*
%TO.P,LED_traffic_light1,3,Y*%
%TO.N,Net-(J1-GPIO20{slash}MOSI1)*%
X88120000Y-85260000D03*
%TO.P,LED_traffic_light1,2,R*%
%TO.N,Net-(J1-GPIO16)*%
X88120000Y-82720000D03*
D11*
%TO.P,LED_traffic_light1,1,GND*%
%TO.N,GND*%
X88120000Y-80180000D03*
%TD*%
D17*
%TO.P,PS1,4,+Vout*%
%TO.N,Net-(PS1-+Vout)*%
X65242500Y-44997500D03*
%TO.P,PS1,3,-Vout*%
%TO.N,GND*%
X38242500Y-44997500D03*
%TO.P,PS1,2,AC/N*%
%TO.N,Net-(AC220V_inlet1-N)*%
X56242500Y-95997500D03*
D18*
%TO.P,PS1,1,AC/L*%
%TO.N,Net-(AC220V_inlet1-AC)*%
X47242500Y-95997500D03*
%TD*%
D13*
%TO.P,AC220V_outlet1,2,N*%
%TO.N,Net-(AC220V_inlet1-N)*%
X69250000Y-111060000D03*
D14*
%TO.P,AC220V_outlet1,1,AC*%
%TO.N,Net-(AC220V_inlet1-AC)*%
X64170000Y-111060000D03*
%TD*%
D19*
%TO.P,REF\u002A\u002A,4*%
%TO.N,N/C*%
X143890000Y-110690000D03*
%TO.P,REF\u002A\u002A,3*%
X143990000Y-97590000D03*
%TO.P,REF\u002A\u002A,2*%
X77790000Y-110790000D03*
%TO.P,REF\u002A\u002A,1*%
X77890000Y-97690000D03*
%TD*%
D10*
%TO.P,temperature_sensor1,3,V_{DD}*%
%TO.N,Net-(PS1-+Vout)*%
X79990000Y-85435000D03*
%TO.P,temperature_sensor1,2,DQ*%
%TO.N,Net-(J1-GPIO25)*%
X79990000Y-82895000D03*
D11*
%TO.P,temperature_sensor1,1,GND*%
%TO.N,GND*%
X79990000Y-80355000D03*
%TD*%
D20*
%TO.N,GND*%
X112877500Y-46777500D02*
X105420000Y-39320000D01*
X115417500Y-70047500D02*
X113609733Y-70047500D01*
X113609733Y-70047500D02*
X112877500Y-69315267D01*
X112877500Y-69315267D02*
X112877500Y-46777500D01*
X116667500Y-68797500D02*
X115417500Y-70047500D01*
X81477767Y-80355000D02*
X79990000Y-80355000D01*
X91267500Y-71337500D02*
X90495267Y-71337500D01*
X90495267Y-71337500D02*
X81477767Y-80355000D01*
X76040000Y-37190000D02*
X61450000Y-22600000D01*
X80160101Y-41580000D02*
X76040000Y-41580000D01*
X84830000Y-47999060D02*
X84830000Y-41560000D01*
X89990000Y-58060000D02*
X89990000Y-53159060D01*
X90017500Y-58087500D02*
X89990000Y-58060000D01*
X84830000Y-41560000D02*
X80180101Y-41560000D01*
X76040000Y-41580000D02*
X76040000Y-37190000D01*
X90017500Y-70087500D02*
X90017500Y-58087500D01*
X89990000Y-53159060D02*
X84830000Y-47999060D01*
X80180101Y-41560000D02*
X80160101Y-41580000D01*
X91267500Y-71337500D02*
X90017500Y-70087500D01*
D21*
%TO.N,Net-(PS1-+Vout)*%
X65242500Y-57424300D02*
X65242500Y-44997500D01*
X76880000Y-73096400D02*
X76880000Y-69061800D01*
X76880000Y-69061800D02*
X65242500Y-57424300D01*
X78295100Y-74511500D02*
X76880000Y-73096400D01*
X78323600Y-74540000D02*
X78295100Y-74511500D01*
X82985000Y-74540000D02*
X78323600Y-74540000D01*
X86187500Y-71337500D02*
X82985000Y-74540000D01*
D22*
%TO.N,Net-(AC220V_inlet1-AC)*%
X47242500Y-98199200D02*
X51170000Y-102126700D01*
X51170000Y-102126700D02*
X51170000Y-111060000D01*
X47242500Y-95997500D02*
X47242500Y-98199200D01*
%TO.N,Net-(AC220V_inlet1-N)*%
X56250000Y-99860000D02*
X56250000Y-108358300D01*
X62530000Y-99860000D02*
X56250000Y-99860000D01*
X69250000Y-106580000D02*
X62530000Y-99860000D01*
X69250000Y-111060000D02*
X69250000Y-106580000D01*
%TO.N,Net-(AC220V_inlet1-AC)*%
X51170000Y-117850000D02*
X51170000Y-111060000D01*
X61710000Y-117850000D02*
X51170000Y-117850000D01*
X64170000Y-111060000D02*
X64170000Y-115390000D01*
X64170000Y-115390000D02*
X61710000Y-117850000D01*
D21*
%TO.N,Net-(J1-GPIO25)*%
X79990000Y-82895000D02*
X81641700Y-82895000D01*
X81641700Y-81787700D02*
X81641700Y-82895000D01*
X90325100Y-73104300D02*
X81641700Y-81787700D01*
X109820700Y-73104300D02*
X90325100Y-73104300D01*
X111587500Y-71337500D02*
X109820700Y-73104300D01*
%TO.N,Net-(J1-GPIO21{slash}SCLK1)*%
X117985000Y-87800000D02*
X88120000Y-87800000D01*
X134447500Y-71337500D02*
X117985000Y-87800000D01*
%TO.N,Net-(J1-GPIO16)*%
X117985000Y-82720000D02*
X129367500Y-71337500D01*
X88120000Y-82720000D02*
X117985000Y-82720000D01*
%TO.N,Net-(J1-GPIO20{slash}MOSI1)*%
X117985000Y-85260000D02*
X131907500Y-71337500D01*
X88120000Y-85260000D02*
X117985000Y-85260000D01*
%TO.N,Net-(PS1-+Vout)*%
X58166700Y-28155000D02*
X65195000Y-35183300D01*
X42845000Y-28155000D02*
X58166700Y-28155000D01*
X65195000Y-36835000D02*
X65195000Y-35183300D01*
X86187500Y-71337500D02*
X88727500Y-71337500D01*
X78295100Y-83740100D02*
X78295100Y-74511500D01*
X79990000Y-85435000D02*
X78295100Y-83740100D01*
X65195000Y-36835000D02*
X65195000Y-38486700D01*
X65195000Y-43148300D02*
X65195000Y-38486700D01*
X65242500Y-43195800D02*
X65195000Y-43148300D01*
X65242500Y-44997500D02*
X65242500Y-43195800D01*
D22*
%TO.N,Net-(AC220V_inlet1-N)*%
X56242500Y-95997500D02*
X56242500Y-98199200D01*
X56250000Y-98206700D02*
X56250000Y-108358300D01*
X56242500Y-98199200D02*
X56250000Y-98206700D01*
X56250000Y-108358300D02*
X56250000Y-111060000D01*
D21*
%TO.N,Net-(J1-SCLK0{slash}GPIO11)*%
X114127500Y-40415000D02*
X114127500Y-68797500D01*
X105532500Y-31820000D02*
X114127500Y-40415000D01*
X105420000Y-31820000D02*
X105532500Y-31820000D01*
%TO.N,Net-(3.3V_Relais1-GPIO)*%
X67556500Y-31246500D02*
X61450000Y-25140000D01*
X67556500Y-36862800D02*
X67556500Y-31246500D01*
X88727500Y-58033800D02*
X67556500Y-36862800D01*
X88727500Y-68797500D02*
X88727500Y-58033800D01*
%TO.N,Net-(3.3V_Relais1-3.3V)*%
X61450000Y-27680000D02*
X59798300Y-27680000D01*
X42845000Y-25615000D02*
X57733300Y-25615000D01*
X57733300Y-25615000D02*
X59798300Y-27680000D01*
X74349300Y-26820000D02*
X79920000Y-26820000D01*
X68477600Y-20948300D02*
X74349300Y-26820000D01*
X60212400Y-20948300D02*
X68477600Y-20948300D01*
X57733300Y-23427400D02*
X60212400Y-20948300D01*
X57733300Y-25615000D02*
X57733300Y-23427400D01*
%TO.N,Net-(J1-~{CE0}{slash}GPIO8)*%
X109577100Y-75887900D02*
X114127500Y-71337500D01*
X89578300Y-75887900D02*
X109577100Y-75887900D01*
X86468300Y-78997900D02*
X89578300Y-75887900D01*
X86468300Y-88497200D02*
X86468300Y-78997900D01*
X87433500Y-89462400D02*
X86468300Y-88497200D01*
X118734000Y-89462400D02*
X87433500Y-89462400D01*
X136143800Y-72052600D02*
X118734000Y-89462400D01*
X136143800Y-54921700D02*
X136143800Y-72052600D01*
X105542100Y-24320000D02*
X136143800Y-54921700D01*
X105420000Y-24320000D02*
X105542100Y-24320000D01*
%TO.N,Net-(J1-GPIO22)*%
X103967500Y-68797500D02*
X103967500Y-67145800D01*
X99033600Y-62211900D02*
X103967500Y-67145800D01*
X99033600Y-48323200D02*
X99033600Y-62211900D01*
X80030400Y-29320000D02*
X99033600Y-48323200D01*
X79920000Y-29320000D02*
X80030400Y-29320000D01*
%TO.N,Net-(J1-GCLK0{slash}GPIO4)*%
X93807500Y-45622700D02*
X93807500Y-68797500D01*
X80004800Y-31820000D02*
X93807500Y-45622700D01*
X79920000Y-31820000D02*
X80004800Y-31820000D01*
%TO.N,Net-(J1-MOSI0{slash}GPIO10)*%
X109047500Y-68797500D02*
X109047500Y-67145800D01*
X105319400Y-26820000D02*
X105420000Y-26820000D01*
X102161700Y-29977700D02*
X105319400Y-26820000D01*
X102161700Y-60260000D02*
X102161700Y-29977700D01*
X109047500Y-67145800D02*
X102161700Y-60260000D01*
%TO.N,Net-(J1-MISO0{slash}GPIO9)*%
X111587500Y-68797500D02*
X111587500Y-67145800D01*
X105355100Y-29320000D02*
X105420000Y-29320000D01*
X103605200Y-31069900D02*
X105355100Y-29320000D01*
X103605200Y-59163500D02*
X103605200Y-31069900D01*
X111587500Y-67145800D02*
X103605200Y-59163500D01*
%TD*%
%TA.AperFunction,Conductor*%
%TO.N,GND*%
G36*
X121997500Y-72668133D02*
G01*
X122210983Y-72610933D01*
X122210992Y-72610929D01*
X122425078Y-72511100D01*
X122618582Y-72375605D01*
X122785605Y-72208582D01*
X122915619Y-72022905D01*
X122970196Y-71979281D01*
X123039695Y-71972088D01*
X123102049Y-72003610D01*
X123118769Y-72022905D01*
X123249005Y-72208901D01*
X123416099Y-72375995D01*
X123504651Y-72438000D01*
X123609665Y-72511532D01*
X123609667Y-72511533D01*
X123609670Y-72511535D01*
X123823837Y-72611403D01*
X124052092Y-72672563D01*
X124240418Y-72689039D01*
X124287499Y-72693159D01*
X124287500Y-72693159D01*
X124287501Y-72693159D01*
X124326734Y-72689726D01*
X124522908Y-72672563D01*
X124751163Y-72611403D01*
X124965330Y-72511535D01*
X125158901Y-72375995D01*
X125325995Y-72208901D01*
X125456230Y-72022905D01*
X125510807Y-71979281D01*
X125580305Y-71972087D01*
X125642660Y-72003610D01*
X125659379Y-72022905D01*
X125789390Y-72208578D01*
X125956417Y-72375605D01*
X126149922Y-72511100D01*
X126149924Y-72511101D01*
X126321982Y-72591333D01*
X126374422Y-72637505D01*
X126393574Y-72704698D01*
X126373358Y-72771580D01*
X126357259Y-72791396D01*
X117565477Y-81583181D01*
X117504154Y-81616666D01*
X117477796Y-81619500D01*
X89389418Y-81619500D01*
X89322379Y-81599815D01*
X89276624Y-81547011D01*
X89266680Y-81477853D01*
X89295705Y-81414297D01*
X89315107Y-81396234D01*
X89327187Y-81387190D01*
X89327190Y-81387187D01*
X89413350Y-81272093D01*
X89413354Y-81272086D01*
X89463596Y-81137379D01*
X89463598Y-81137372D01*
X89469999Y-81077844D01*
X89470000Y-81077827D01*
X89470000Y-80430000D01*
X88553012Y-80430000D01*
X88585925Y-80372993D01*
X88620000Y-80245826D01*
X88620000Y-80114174D01*
X88585925Y-79987007D01*
X88553012Y-79930000D01*
X89470000Y-79930000D01*
X89470000Y-79282172D01*
X89469999Y-79282155D01*
X89463598Y-79222627D01*
X89463596Y-79222620D01*
X89413354Y-79087913D01*
X89413350Y-79087906D01*
X89327190Y-78972812D01*
X89327187Y-78972809D01*
X89212093Y-78886649D01*
X89212086Y-78886645D01*
X89077379Y-78836403D01*
X89077372Y-78836401D01*
X89017844Y-78830000D01*
X88491904Y-78830000D01*
X88424865Y-78810315D01*
X88379110Y-78757511D01*
X88369166Y-78688353D01*
X88398191Y-78624797D01*
X88404223Y-78618319D01*
X89997823Y-77024719D01*
X90059146Y-76991234D01*
X90085504Y-76988400D01*
X109663710Y-76988400D01*
X109663711Y-76988400D01*
X109834801Y-76961302D01*
X109999545Y-76907773D01*
X110153888Y-76829132D01*
X110294028Y-76727314D01*
X114320113Y-72701227D01*
X114375696Y-72669136D01*
X114591163Y-72611403D01*
X114805330Y-72511535D01*
X114998901Y-72375995D01*
X115165995Y-72208901D01*
X115295925Y-72023342D01*
X115350502Y-71979717D01*
X115420000Y-71972523D01*
X115482355Y-72004046D01*
X115499075Y-72023342D01*
X115628781Y-72208582D01*
X115629005Y-72208901D01*
X115796099Y-72375995D01*
X115884651Y-72438000D01*
X115989665Y-72511532D01*
X115989667Y-72511533D01*
X115989670Y-72511535D01*
X116203837Y-72611403D01*
X116432092Y-72672563D01*
X116620418Y-72689039D01*
X116667499Y-72693159D01*
X116667500Y-72693159D01*
X116667501Y-72693159D01*
X116706734Y-72689726D01*
X116902908Y-72672563D01*
X117131163Y-72611403D01*
X117345330Y-72511535D01*
X117538901Y-72375995D01*
X117705995Y-72208901D01*
X117835925Y-72023342D01*
X117890502Y-71979717D01*
X117960000Y-71972523D01*
X118022355Y-72004046D01*
X118039075Y-72023342D01*
X118168781Y-72208582D01*
X118169005Y-72208901D01*
X118336099Y-72375995D01*
X118424651Y-72438000D01*
X118529665Y-72511532D01*
X118529667Y-72511533D01*
X118529670Y-72511535D01*
X118743837Y-72611403D01*
X118972092Y-72672563D01*
X119160418Y-72689039D01*
X119207499Y-72693159D01*
X119207500Y-72693159D01*
X119207501Y-72693159D01*
X119246734Y-72689726D01*
X119442908Y-72672563D01*
X119671163Y-72611403D01*
X119885330Y-72511535D01*
X120078901Y-72375995D01*
X120245995Y-72208901D01*
X120376230Y-72022905D01*
X120430807Y-71979281D01*
X120500305Y-71972087D01*
X120562660Y-72003610D01*
X120579379Y-72022905D01*
X120709390Y-72208578D01*
X120876417Y-72375605D01*
X121069921Y-72511100D01*
X121284007Y-72610929D01*
X121284016Y-72610933D01*
X121497500Y-72668134D01*
X121497500Y-71770512D01*
X121554507Y-71803425D01*
X121681674Y-71837500D01*
X121813326Y-71837500D01*
X121940493Y-71803425D01*
X121997500Y-71770512D01*
X121997500Y-72668133D01*
G37*
%TD.AperFunction*%
%TA.AperFunction,Conductor*%
G36*
X87972593Y-72457685D02*
G01*
X87976660Y-72460413D01*
X88049670Y-72511535D01*
X88263837Y-72611403D01*
X88492092Y-72672563D01*
X88680418Y-72689039D01*
X88727499Y-72693159D01*
X88727500Y-72693159D01*
X88883885Y-72679476D01*
X88952382Y-72693242D01*
X89002565Y-72741857D01*
X89018499Y-72809885D01*
X88995124Y-72875729D01*
X88982371Y-72890685D01*
X81551681Y-80321376D01*
X81490358Y-80354861D01*
X81420666Y-80349877D01*
X81364733Y-80308005D01*
X81340316Y-80242541D01*
X81340000Y-80233695D01*
X81340000Y-79457172D01*
X81339999Y-79457155D01*
X81333598Y-79397627D01*
X81333596Y-79397620D01*
X81283354Y-79262913D01*
X81283350Y-79262906D01*
X81197190Y-79147812D01*
X81197187Y-79147809D01*
X81082093Y-79061649D01*
X81082086Y-79061645D01*
X80947379Y-79011403D01*
X80947372Y-79011401D01*
X80887844Y-79005000D01*
X80240000Y-79005000D01*
X80240000Y-79921988D01*
X80182993Y-79889075D01*
X80055826Y-79855000D01*
X79924174Y-79855000D01*
X79797007Y-79889075D01*
X79740000Y-79921988D01*
X79740000Y-79005000D01*
X79519600Y-79005000D01*
X79452561Y-78985315D01*
X79406806Y-78932511D01*
X79395600Y-78881000D01*
X79395600Y-75764500D01*
X79415285Y-75697461D01*
X79468089Y-75651706D01*
X79519600Y-75640500D01*
X83071610Y-75640500D01*
X83071611Y-75640500D01*
X83242701Y-75613402D01*
X83407445Y-75559873D01*
X83561788Y-75481232D01*
X83701928Y-75379414D01*
X86380113Y-72701227D01*
X86435696Y-72669136D01*
X86651163Y-72611403D01*
X86865330Y-72511535D01*
X86938323Y-72460424D01*
X87004529Y-72438098D01*
X87009446Y-72438000D01*
X87905554Y-72438000D01*
X87972593Y-72457685D01*
G37*
%TD.AperFunction*%
%TA.AperFunction,Conductor*%
G36*
X95113203Y-45959591D02*
G01*
X95119681Y-45965623D01*
X97896781Y-48742723D01*
X97930266Y-48804046D01*
X97933100Y-48830404D01*
X97933100Y-62125289D01*
X97933100Y-62298511D01*
X97960198Y-62469601D01*
X98013727Y-62634345D01*
X98092368Y-62788688D01*
X98194186Y-62928828D01*
X98194188Y-62928830D01*
X102830681Y-67565323D01*
X102864166Y-67626646D01*
X102867000Y-67653004D01*
X102867000Y-67975554D01*
X102847315Y-68042593D01*
X102844589Y-68046656D01*
X102799073Y-68111660D01*
X102744499Y-68155284D01*
X102675001Y-68162478D01*
X102612646Y-68130956D01*
X102595925Y-68111659D01*
X102465994Y-67926097D01*
X102298902Y-67759006D01*
X102298895Y-67759001D01*
X102105334Y-67623467D01*
X102105330Y-67623465D01*
X102099960Y-67620961D01*
X101891163Y-67523597D01*
X101891159Y-67523596D01*
X101891155Y-67523594D01*
X101662913Y-67462438D01*
X101662903Y-67462436D01*
X101427501Y-67441841D01*
X101427499Y-67441841D01*
X101192096Y-67462436D01*
X101192086Y-67462438D01*
X100963844Y-67523594D01*
X100963837Y-67523596D01*
X100963837Y-67523597D01*
X100950316Y-67529901D01*
X100749671Y-67623464D01*
X100749669Y-67623465D01*
X100556097Y-67759005D01*
X100389005Y-67926097D01*
X100259075Y-68111658D01*
X100204498Y-68155283D01*
X100135000Y-68162477D01*
X100072645Y-68130954D01*
X100055925Y-68111658D01*
X99925994Y-67926097D01*
X99758902Y-67759006D01*
X99758895Y-67759001D01*
X99565334Y-67623467D01*
X99565330Y-67623465D01*
X99559960Y-67620961D01*
X99351163Y-67523597D01*
X99351159Y-67523596D01*
X99351155Y-67523594D01*
X99122913Y-67462438D01*
X99122903Y-67462436D01*
X98887501Y-67441841D01*
X98887499Y-67441841D01*
X98652096Y-67462436D01*
X98652086Y-67462438D01*
X98423844Y-67523594D01*
X98423837Y-67523596D01*
X98423837Y-67523597D01*
X98410316Y-67529901D01*
X98209671Y-67623464D01*
X98209669Y-67623465D01*
X98016097Y-67759005D01*
X97849008Y-67926094D01*
X97718769Y-68112095D01*
X97664192Y-68155719D01*
X97594693Y-68162912D01*
X97532339Y-68131390D01*
X97515619Y-68112094D01*
X97385613Y-67926426D01*
X97385608Y-67926420D01*
X97218582Y-67759394D01*
X97025078Y-67623899D01*
X96810992Y-67524070D01*
X96810986Y-67524067D01*
X96597500Y-67466864D01*
X96597500Y-68364488D01*
X96540493Y-68331575D01*
X96413326Y-68297500D01*
X96281674Y-68297500D01*
X96154507Y-68331575D01*
X96097500Y-68364488D01*
X96097500Y-67466864D01*
X96097499Y-67466864D01*
X95884013Y-67524067D01*
X95884007Y-67524070D01*
X95669922Y-67623899D01*
X95669920Y-67623900D01*
X95476426Y-67759386D01*
X95476420Y-67759391D01*
X95309391Y-67926420D01*
X95309386Y-67926427D01*
X95179380Y-68112095D01*
X95124803Y-68155720D01*
X95055305Y-68162914D01*
X94992950Y-68131391D01*
X94976230Y-68112095D01*
X94930424Y-68046676D01*
X94908097Y-67980470D01*
X94908000Y-67975554D01*
X94908000Y-46053304D01*
X94927685Y-45986265D01*
X94980489Y-45940510D01*
X95049647Y-45930566D01*
X95113203Y-45959591D01*
G37*
%TD.AperFunction*%
%TA.AperFunction,Conductor*%
G36*
X106989990Y-27328819D02*
G01*
X107012208Y-27346450D01*
X135006981Y-55341223D01*
X135040466Y-55402546D01*
X135043300Y-55428904D01*
X135043300Y-67397920D01*
X135023615Y-67464959D01*
X134970811Y-67510714D01*
X134901653Y-67520658D01*
X134887207Y-67517695D01*
X134697500Y-67466863D01*
X134697500Y-68364488D01*
X134640493Y-68331575D01*
X134513326Y-68297500D01*
X134381674Y-68297500D01*
X134254507Y-68331575D01*
X134197500Y-68364488D01*
X134197500Y-67466864D01*
X134197499Y-67466864D01*
X133984013Y-67524067D01*
X133984007Y-67524070D01*
X133769922Y-67623899D01*
X133769920Y-67623900D01*
X133576426Y-67759386D01*
X133576420Y-67759391D01*
X133409391Y-67926420D01*
X133409390Y-67926422D01*
X133279380Y-68112095D01*
X133224803Y-68155719D01*
X133155304Y-68162912D01*
X133092950Y-68131390D01*
X133076230Y-68112094D01*
X132945994Y-67926097D01*
X132778902Y-67759006D01*
X132778895Y-67759001D01*
X132585334Y-67623467D01*
X132585330Y-67623465D01*
X132579960Y-67620961D01*
X132371163Y-67523597D01*
X132371159Y-67523596D01*
X132371155Y-67523594D01*
X132142913Y-67462438D01*
X132142903Y-67462436D01*
X131907501Y-67441841D01*
X131907499Y-67441841D01*
X131672096Y-67462436D01*
X131672086Y-67462438D01*
X131443844Y-67523594D01*
X131443837Y-67523596D01*
X131443837Y-67523597D01*
X131430316Y-67529901D01*
X131229671Y-67623464D01*
X131229669Y-67623465D01*
X131036097Y-67759005D01*
X130869005Y-67926097D01*
X130739075Y-68111658D01*
X130684498Y-68155283D01*
X130615000Y-68162477D01*
X130552645Y-68130954D01*
X130535925Y-68111658D01*
X130405994Y-67926097D01*
X130238902Y-67759006D01*
X130238895Y-67759001D01*
X130045334Y-67623467D01*
X130045330Y-67623465D01*
X130039960Y-67620961D01*
X129831163Y-67523597D01*
X129831159Y-67523596D01*
X129831155Y-67523594D01*
X129602913Y-67462438D01*
X129602903Y-67462436D01*
X129367501Y-67441841D01*
X129367499Y-67441841D01*
X129132096Y-67462436D01*
X129132086Y-67462438D01*
X128903844Y-67523594D01*
X128903837Y-67523596D01*
X128903837Y-67523597D01*
X128890316Y-67529901D01*
X128689671Y-67623464D01*
X128689669Y-67623465D01*
X128496097Y-67759005D01*
X128329005Y-67926097D01*
X128199075Y-68111658D01*
X128144498Y-68155283D01*
X128075000Y-68162477D01*
X128012645Y-68130954D01*
X127995925Y-68111658D01*
X127865994Y-67926097D01*
X127698902Y-67759006D01*
X127698895Y-67759001D01*
X127505334Y-67623467D01*
X127505330Y-67623465D01*
X127499960Y-67620961D01*
X127291163Y-67523597D01*
X127291159Y-67523596D01*
X127291155Y-67523594D01*
X127062913Y-67462438D01*
X127062903Y-67462436D01*
X126827501Y-67441841D01*
X126827499Y-67441841D01*
X126592096Y-67462436D01*
X126592086Y-67462438D01*
X126363844Y-67523594D01*
X126363837Y-67523596D01*
X126363837Y-67523597D01*
X126350316Y-67529901D01*
X126149671Y-67623464D01*
X126149669Y-67623465D01*
X125956097Y-67759005D01*
X125789005Y-67926097D01*
X125659075Y-68111658D01*
X125604498Y-68155283D01*
X125535000Y-68162477D01*
X125472645Y-68130954D01*
X125455925Y-68111658D01*
X125325994Y-67926097D01*
X125158902Y-67759006D01*
X125158895Y-67759001D01*
X124965334Y-67623467D01*
X124965330Y-67623465D01*
X124959960Y-67620961D01*
X124751163Y-67523597D01*
X124751159Y-67523596D01*
X124751155Y-67523594D01*
X124522913Y-67462438D01*
X124522903Y-67462436D01*
X124287501Y-67441841D01*
X124287499Y-67441841D01*
X124052096Y-67462436D01*
X124052086Y-67462438D01*
X123823844Y-67523594D01*
X123823837Y-67523596D01*
X123823837Y-67523597D01*
X123810316Y-67529901D01*
X123609671Y-67623464D01*
X123609669Y-67623465D01*
X123416097Y-67759005D01*
X123249005Y-67926097D01*
X123119075Y-68111658D01*
X123064498Y-68155283D01*
X122995000Y-68162477D01*
X122932645Y-68130954D01*
X122915925Y-68111658D01*
X122785994Y-67926097D01*
X122618902Y-67759006D01*
X122618895Y-67759001D01*
X122425334Y-67623467D01*
X122425330Y-67623465D01*
X122419960Y-67620961D01*
X122211163Y-67523597D01*
X122211159Y-67523596D01*
X122211155Y-67523594D01*
X121982913Y-67462438D01*
X121982903Y-67462436D01*
X121747501Y-67441841D01*
X121747499Y-67441841D01*
X121512096Y-67462436D01*
X121512086Y-67462438D01*
X121283844Y-67523594D01*
X121283837Y-67523596D01*
X121283837Y-67523597D01*
X121270316Y-67529901D01*
X121069671Y-67623464D01*
X121069669Y-67623465D01*
X120876097Y-67759005D01*
X120709005Y-67926097D01*
X120579075Y-68111658D01*
X120524498Y-68155283D01*
X120455000Y-68162477D01*
X120392645Y-68130954D01*
X120375925Y-68111658D01*
X120245994Y-67926097D01*
X120078902Y-67759006D01*
X120078895Y-67759001D01*
X119885334Y-67623467D01*
X119885330Y-67623465D01*
X119879960Y-67620961D01*
X119671163Y-67523597D01*
X119671159Y-67523596D01*
X119671155Y-67523594D01*
X119442913Y-67462438D01*
X119442903Y-67462436D01*
X119207501Y-67441841D01*
X119207499Y-67441841D01*
X118972096Y-67462436D01*
X118972086Y-67462438D01*
X118743844Y-67523594D01*
X118743837Y-67523596D01*
X118743837Y-67523597D01*
X118730316Y-67529901D01*
X118529671Y-67623464D01*
X118529669Y-67623465D01*
X118336097Y-67759005D01*
X118169008Y-67926094D01*
X118038769Y-68112095D01*
X117984192Y-68155719D01*
X117914693Y-68162912D01*
X117852339Y-68131390D01*
X117835619Y-68112094D01*
X117705613Y-67926426D01*
X117705608Y-67926420D01*
X117538582Y-67759394D01*
X117345078Y-67623899D01*
X117130992Y-67524070D01*
X117130986Y-67524067D01*
X116917500Y-67466864D01*
X116917500Y-68364488D01*
X116860493Y-68331575D01*
X116733326Y-68297500D01*
X116601674Y-68297500D01*
X116474507Y-68331575D01*
X116417500Y-68364488D01*
X116417500Y-67466864D01*
X116417499Y-67466864D01*
X116204013Y-67524067D01*
X116204007Y-67524070D01*
X115989922Y-67623899D01*
X115989920Y-67623900D01*
X115796426Y-67759386D01*
X115796420Y-67759391D01*
X115629391Y-67926420D01*
X115629386Y-67926427D01*
X115499380Y-68112095D01*
X115444803Y-68155720D01*
X115375305Y-68162914D01*
X115312950Y-68131391D01*
X115296230Y-68112095D01*
X115250424Y-68046676D01*
X115228097Y-67980470D01*
X115228000Y-67975554D01*
X115228000Y-40328385D01*
X115220661Y-40282053D01*
X115220661Y-40282051D01*
X115200903Y-40157299D01*
X115147373Y-39992555D01*
X115129655Y-39957782D01*
X115068732Y-39838212D01*
X115068730Y-39838209D01*
X115068729Y-39838207D01*
X115030743Y-39785925D01*
X114966914Y-39698072D01*
X114844428Y-39575586D01*
X106943040Y-31674198D01*
X106909555Y-31612875D01*
X106907144Y-31596756D01*
X106905108Y-31572179D01*
X106844063Y-31331119D01*
X106768954Y-31159889D01*
X106744173Y-31103393D01*
X106608166Y-30895217D01*
X106579100Y-30863643D01*
X106439744Y-30712262D01*
X106382685Y-30667851D01*
X106341874Y-30611143D01*
X106338199Y-30541370D01*
X106372830Y-30480687D01*
X106382675Y-30472156D01*
X106439744Y-30427738D01*
X106608164Y-30244785D01*
X106744173Y-30036607D01*
X106844063Y-29808881D01*
X106905108Y-29567821D01*
X106906129Y-29555500D01*
X106925643Y-29320005D01*
X106925643Y-29319994D01*
X106905109Y-29072187D01*
X106905107Y-29072175D01*
X106844063Y-28831118D01*
X106744173Y-28603393D01*
X106608166Y-28395217D01*
X106573749Y-28357830D01*
X106439744Y-28212262D01*
X106382685Y-28167851D01*
X106341874Y-28111143D01*
X106338199Y-28041370D01*
X106372830Y-27980687D01*
X106382675Y-27972156D01*
X106439744Y-27927738D01*
X106608164Y-27744785D01*
X106744173Y-27536607D01*
X106810972Y-27384318D01*
X106855927Y-27330835D01*
X106922662Y-27310145D01*
X106989990Y-27328819D01*
G37*
%TD.AperFunction*%
%TA.AperFunction,Conductor*%
G36*
X68037435Y-22068485D02*
G01*
X68058077Y-22085119D01*
X73632372Y-27659414D01*
X73772512Y-27761232D01*
X73926855Y-27839873D01*
X74091599Y-27893402D01*
X74262689Y-27920500D01*
X74435911Y-27920500D01*
X78848388Y-27920500D01*
X78915427Y-27940185D01*
X78924542Y-27946641D01*
X78957313Y-27972147D01*
X78998126Y-28028858D01*
X79001799Y-28098631D01*
X78967168Y-28159314D01*
X78957317Y-28167848D01*
X78934136Y-28185892D01*
X78900257Y-28212261D01*
X78731833Y-28395217D01*
X78595826Y-28603393D01*
X78495936Y-28831118D01*
X78434892Y-29072175D01*
X78434890Y-29072187D01*
X78414357Y-29319994D01*
X78414357Y-29320005D01*
X78434890Y-29567812D01*
X78434892Y-29567824D01*
X78495936Y-29808881D01*
X78595826Y-30036606D01*
X78731833Y-30244782D01*
X78731836Y-30244785D01*
X78900256Y-30427738D01*
X78957312Y-30472147D01*
X78998125Y-30528857D01*
X79001800Y-30598630D01*
X78967169Y-30659313D01*
X78957317Y-30667848D01*
X78917283Y-30699008D01*
X78900257Y-30712261D01*
X78731833Y-30895217D01*
X78595826Y-31103393D01*
X78495936Y-31331118D01*
X78434892Y-31572175D01*
X78434890Y-31572187D01*
X78414357Y-31819994D01*
X78414357Y-31820005D01*
X78434890Y-32067812D01*
X78434892Y-32067824D01*
X78495936Y-32308881D01*
X78595826Y-32536606D01*
X78731833Y-32744782D01*
X78731836Y-32744785D01*
X78900256Y-32927738D01*
X78957312Y-32972147D01*
X78998125Y-33028857D01*
X79001800Y-33098630D01*
X78967169Y-33159313D01*
X78957317Y-33167848D01*
X78917283Y-33199008D01*
X78900257Y-33212261D01*
X78731833Y-33395217D01*
X78595826Y-33603393D01*
X78495936Y-33831118D01*
X78434892Y-34072175D01*
X78434890Y-34072187D01*
X78414357Y-34319994D01*
X78414357Y-34320005D01*
X78434890Y-34567812D01*
X78434892Y-34567824D01*
X78495936Y-34808881D01*
X78595826Y-35036606D01*
X78731833Y-35244782D01*
X78731836Y-35244785D01*
X78900256Y-35427738D01*
X78957312Y-35472147D01*
X78998125Y-35528857D01*
X79001800Y-35598630D01*
X78967169Y-35659313D01*
X78957317Y-35667848D01*
X78917283Y-35699008D01*
X78900257Y-35712261D01*
X78731833Y-35895217D01*
X78595826Y-36103393D01*
X78495936Y-36331118D01*
X78434892Y-36572175D01*
X78434890Y-36572187D01*
X78414357Y-36819994D01*
X78414357Y-36820005D01*
X78434890Y-37067812D01*
X78434892Y-37067824D01*
X78495936Y-37308881D01*
X78595826Y-37536606D01*
X78731833Y-37744782D01*
X78731836Y-37744785D01*
X78900256Y-37927738D01*
X78957312Y-37972147D01*
X78998125Y-38028857D01*
X79001800Y-38098630D01*
X78967169Y-38159313D01*
X78957317Y-38167848D01*
X78935282Y-38185000D01*
X78900257Y-38212261D01*
X78731833Y-38395217D01*
X78595826Y-38603393D01*
X78495936Y-38831118D01*
X78434892Y-39072175D01*
X78434890Y-39072187D01*
X78414357Y-39319994D01*
X78414357Y-39320005D01*
X78434890Y-39567812D01*
X78434892Y-39567824D01*
X78495936Y-39808881D01*
X78595826Y-40036606D01*
X78731833Y-40244782D01*
X78731836Y-40244785D01*
X78900256Y-40427738D01*
X79096491Y-40580474D01*
X79096493Y-40580475D01*
X79314332Y-40698364D01*
X79315190Y-40698828D01*
X79514770Y-40767344D01*
X79548964Y-40779083D01*
X79550386Y-40779571D01*
X79795665Y-40820500D01*
X80044335Y-40820500D01*
X80289614Y-40779571D01*
X80524810Y-40698828D01*
X80743509Y-40580474D01*
X80939744Y-40427738D01*
X81108164Y-40244785D01*
X81244173Y-40036607D01*
X81344063Y-39808881D01*
X81405108Y-39567821D01*
X81425643Y-39320000D01*
X81422052Y-39276666D01*
X81405109Y-39072187D01*
X81405107Y-39072175D01*
X81344063Y-38831118D01*
X81244173Y-38603393D01*
X81108166Y-38395217D01*
X81001706Y-38279571D01*
X80939744Y-38212262D01*
X80882685Y-38167851D01*
X80841874Y-38111143D01*
X80838199Y-38041370D01*
X80872830Y-37980687D01*
X80882675Y-37972156D01*
X80939744Y-37927738D01*
X81108164Y-37744785D01*
X81244173Y-37536607D01*
X81344063Y-37308881D01*
X81405108Y-37067821D01*
X81405109Y-37067812D01*
X81425643Y-36820005D01*
X81425643Y-36819994D01*
X81405109Y-36572187D01*
X81405107Y-36572175D01*
X81344063Y-36331118D01*
X81244173Y-36103393D01*
X81108166Y-35895217D01*
X80967960Y-35742913D01*
X80939744Y-35712262D01*
X80882685Y-35667851D01*
X80841874Y-35611143D01*
X80838199Y-35541370D01*
X80872830Y-35480687D01*
X80882675Y-35472156D01*
X80939744Y-35427738D01*
X81108164Y-35244785D01*
X81244173Y-35036607D01*
X81299599Y-34910246D01*
X81344553Y-34856763D01*
X81411289Y-34836072D01*
X81478617Y-34854746D01*
X81500835Y-34872377D01*
X92670681Y-46042223D01*
X92704166Y-46103546D01*
X92707000Y-46129904D01*
X92707000Y-67975554D01*
X92687315Y-68042593D01*
X92684589Y-68046656D01*
X92639073Y-68111660D01*
X92584499Y-68155284D01*
X92515001Y-68162478D01*
X92452646Y-68130956D01*
X92435925Y-68111659D01*
X92305994Y-67926097D01*
X92138902Y-67759006D01*
X92138895Y-67759001D01*
X91945334Y-67623467D01*
X91945330Y-67623465D01*
X91939960Y-67620961D01*
X91731163Y-67523597D01*
X91731159Y-67523596D01*
X91731155Y-67523594D01*
X91502913Y-67462438D01*
X91502903Y-67462436D01*
X91267501Y-67441841D01*
X91267499Y-67441841D01*
X91032096Y-67462436D01*
X91032086Y-67462438D01*
X90803844Y-67523594D01*
X90803837Y-67523596D01*
X90803837Y-67523597D01*
X90790316Y-67529901D01*
X90589671Y-67623464D01*
X90589669Y-67623465D01*
X90396097Y-67759005D01*
X90229008Y-67926094D01*
X90099074Y-68111660D01*
X90044497Y-68155284D01*
X89974998Y-68162477D01*
X89912644Y-68130955D01*
X89895924Y-68111658D01*
X89850425Y-68046677D01*
X89850424Y-68046675D01*
X89828097Y-67980469D01*
X89828000Y-67975554D01*
X89828000Y-57947189D01*
X89800902Y-57776099D01*
X89747373Y-57611354D01*
X89747371Y-57611351D01*
X89747371Y-57611349D01*
X89668731Y-57457011D01*
X89566914Y-57316872D01*
X81154723Y-48904681D01*
X81121238Y-48843358D01*
X81126222Y-48773666D01*
X81168094Y-48717733D01*
X81233558Y-48693316D01*
X81242404Y-48693000D01*
X81445429Y-48693000D01*
X81445430Y-48693000D01*
X81698139Y-48652974D01*
X81941475Y-48573910D01*
X82169447Y-48457752D01*
X82376442Y-48307362D01*
X82557362Y-48126442D01*
X82707752Y-47919447D01*
X82823910Y-47691475D01*
X82902974Y-47448139D01*
X82943000Y-47195430D01*
X82943000Y-46939570D01*
X82902974Y-46686861D01*
X82863442Y-46565193D01*
X82823911Y-46443527D01*
X82823910Y-46443524D01*
X82740800Y-46280414D01*
X82707752Y-46215553D01*
X82626375Y-46103546D01*
X82557367Y-46008564D01*
X82557363Y-46008559D01*
X82376440Y-45827636D01*
X82376435Y-45827632D01*
X82169450Y-45677250D01*
X82169449Y-45677249D01*
X82169447Y-45677248D01*
X82062040Y-45622521D01*
X81941475Y-45561089D01*
X81941472Y-45561088D01*
X81698140Y-45482026D01*
X81571784Y-45462013D01*
X81445430Y-45442000D01*
X81189570Y-45442000D01*
X81105333Y-45455342D01*
X80936859Y-45482026D01*
X80693527Y-45561088D01*
X80693524Y-45561089D01*
X80465549Y-45677250D01*
X80258564Y-45827632D01*
X80258559Y-45827636D01*
X80077636Y-46008559D01*
X80077632Y-46008564D01*
X79927250Y-46215549D01*
X79811089Y-46443524D01*
X79811088Y-46443527D01*
X79732026Y-46686859D01*
X79692000Y-46939570D01*
X79692000Y-47142596D01*
X79672315Y-47209635D01*
X79619511Y-47255390D01*
X79550353Y-47265334D01*
X79486797Y-47236309D01*
X79480319Y-47230277D01*
X68693319Y-36443277D01*
X68659834Y-36381954D01*
X68657000Y-36355596D01*
X68657000Y-31159889D01*
X68629902Y-30988802D01*
X68629902Y-30988799D01*
X68576373Y-30824055D01*
X68497732Y-30669712D01*
X68395914Y-30529572D01*
X68273428Y-30407086D01*
X62813728Y-24947386D01*
X62781635Y-24891800D01*
X62723903Y-24676337D01*
X62624035Y-24462171D01*
X62607481Y-24438530D01*
X62488496Y-24268600D01*
X62434396Y-24214500D01*
X62366179Y-24146283D01*
X62332696Y-24084963D01*
X62337680Y-24015271D01*
X62379551Y-23959337D01*
X62410529Y-23942422D01*
X62542086Y-23893354D01*
X62542093Y-23893350D01*
X62657187Y-23807190D01*
X62657190Y-23807187D01*
X62743350Y-23692093D01*
X62743354Y-23692086D01*
X62793596Y-23557379D01*
X62793598Y-23557372D01*
X62799999Y-23497844D01*
X62800000Y-23497827D01*
X62800000Y-22850000D01*
X61883012Y-22850000D01*
X61915925Y-22792993D01*
X61950000Y-22665826D01*
X61950000Y-22534174D01*
X61915925Y-22407007D01*
X61883012Y-22350000D01*
X62800000Y-22350000D01*
X62800000Y-22172800D01*
X62819685Y-22105761D01*
X62872489Y-22060006D01*
X62924000Y-22048800D01*
X67970396Y-22048800D01*
X68037435Y-22068485D01*
G37*
%TD.AperFunction*%
%TA.AperFunction,Conductor*%
G36*
X106987063Y-34835492D02*
G01*
X107009281Y-34853123D01*
X112990681Y-40834523D01*
X113024166Y-40895846D01*
X113027000Y-40922204D01*
X113027000Y-67975554D01*
X113007315Y-68042593D01*
X113004589Y-68046656D01*
X112959073Y-68111660D01*
X112904499Y-68155284D01*
X112835001Y-68162478D01*
X112772646Y-68130956D01*
X112755929Y-68111664D01*
X112710423Y-68046675D01*
X112688097Y-67980470D01*
X112688000Y-67975554D01*
X112688000Y-67059189D01*
X112660902Y-66888102D01*
X112660902Y-66888101D01*
X112660902Y-66888099D01*
X112607373Y-66723355D01*
X112528732Y-66569012D01*
X112426914Y-66428872D01*
X112304428Y-66306386D01*
X104742019Y-58743977D01*
X104708534Y-58682654D01*
X104705700Y-58656296D01*
X104705700Y-40834383D01*
X104725385Y-40767344D01*
X104778189Y-40721589D01*
X104847347Y-40711645D01*
X104869963Y-40717102D01*
X105050506Y-40779083D01*
X105295707Y-40820000D01*
X105544293Y-40820000D01*
X105789493Y-40779083D01*
X106024603Y-40698369D01*
X106024614Y-40698364D01*
X106243228Y-40580057D01*
X106243231Y-40580055D01*
X106290056Y-40543609D01*
X105549409Y-39802962D01*
X105612993Y-39785925D01*
X105727007Y-39720099D01*
X105820099Y-39627007D01*
X105885925Y-39512993D01*
X105902962Y-39449410D01*
X106643434Y-40189882D01*
X106743731Y-40036369D01*
X106843587Y-39808717D01*
X106904612Y-39567738D01*
X106904614Y-39567729D01*
X106925141Y-39320005D01*
X106925141Y-39319994D01*
X106904614Y-39072270D01*
X106904612Y-39072261D01*
X106843587Y-38831282D01*
X106743731Y-38603630D01*
X106643434Y-38450116D01*
X105902962Y-39190589D01*
X105885925Y-39127007D01*
X105820099Y-39012993D01*
X105727007Y-38919901D01*
X105612993Y-38854075D01*
X105549409Y-38837037D01*
X106295898Y-38090548D01*
X106306515Y-38043852D01*
X106338621Y-38006444D01*
X106439744Y-37927738D01*
X106608164Y-37744785D01*
X106744173Y-37536607D01*
X106844063Y-37308881D01*
X106905108Y-37067821D01*
X106905109Y-37067812D01*
X106925643Y-36820005D01*
X106925643Y-36819994D01*
X106905109Y-36572187D01*
X106905107Y-36572175D01*
X106844063Y-36331118D01*
X106744173Y-36103393D01*
X106608166Y-35895217D01*
X106467960Y-35742913D01*
X106439744Y-35712262D01*
X106382685Y-35667851D01*
X106341874Y-35611143D01*
X106338199Y-35541370D01*
X106372830Y-35480687D01*
X106382675Y-35472156D01*
X106439744Y-35427738D01*
X106608164Y-35244785D01*
X106744173Y-35036607D01*
X106808045Y-34890991D01*
X106853000Y-34837508D01*
X106919735Y-34816818D01*
X106987063Y-34835492D01*
G37*
%TD.AperFunction*%
%TA.AperFunction,Conductor*%
G36*
X147755676Y-18609685D02*
G01*
X147801431Y-18662489D01*
X147811375Y-18731647D01*
X147803198Y-18761452D01*
X147788847Y-18796097D01*
X147788842Y-18796113D01*
X147729453Y-19017759D01*
X147729451Y-19017770D01*
X147699500Y-19245258D01*
X147699500Y-19474741D01*
X147724446Y-19664215D01*
X147729452Y-19702238D01*
X147768455Y-19847800D01*
X147788842Y-19923887D01*
X147876650Y-20135876D01*
X147876657Y-20135890D01*
X147991392Y-20334617D01*
X148131081Y-20516661D01*
X148131089Y-20516670D01*
X148293330Y-20678911D01*
X148293338Y-20678918D01*
X148293339Y-20678919D01*
X148363923Y-20733080D01*
X148400144Y-20760874D01*
X148441346Y-20817302D01*
X148448656Y-20858776D01*
X148719525Y-91845527D01*
X148700096Y-91912641D01*
X148647467Y-91958597D01*
X148595526Y-91970000D01*
X31013124Y-91970000D01*
X30946085Y-91950315D01*
X30900330Y-91897511D01*
X30889127Y-91846879D01*
X30558815Y-45247500D01*
X36613398Y-45247500D01*
X36629434Y-45348747D01*
X36702397Y-45573302D01*
X36809585Y-45783671D01*
X36948366Y-45974686D01*
X37115313Y-46141633D01*
X37306328Y-46280414D01*
X37516697Y-46387602D01*
X37741252Y-46460565D01*
X37741251Y-46460565D01*
X37974448Y-46497500D01*
X37992500Y-46497500D01*
X37992500Y-45597501D01*
X38052902Y-45622521D01*
X38178481Y-45647500D01*
X38306519Y-45647500D01*
X38432098Y-45622521D01*
X38492500Y-45597501D01*
X38492500Y-46497500D01*
X38510552Y-46497500D01*
X38743747Y-46460565D01*
X38968302Y-46387602D01*
X39178671Y-46280414D01*
X39369686Y-46141633D01*
X39536633Y-45974686D01*
X39675414Y-45783671D01*
X39782602Y-45573302D01*
X39855565Y-45348747D01*
X39871602Y-45247500D01*
X38842501Y-45247500D01*
X38867521Y-45187098D01*
X38892500Y-45061519D01*
X38892500Y-44933481D01*
X38867521Y-44807902D01*
X38842501Y-44747500D01*
X39871602Y-44747500D01*
X39855565Y-44646252D01*
X39782602Y-44421697D01*
X39675414Y-44211328D01*
X39536633Y-44020313D01*
X39369686Y-43853366D01*
X39178671Y-43714585D01*
X38968302Y-43607397D01*
X38743747Y-43534434D01*
X38743748Y-43534434D01*
X38510552Y-43497500D01*
X38492500Y-43497500D01*
X38492500Y-44397498D01*
X38432098Y-44372479D01*
X38306519Y-44347500D01*
X38178481Y-44347500D01*
X38052902Y-44372479D01*
X37992500Y-44397498D01*
X37992500Y-43497500D01*
X37974448Y-43497500D01*
X37741252Y-43534434D01*
X37516697Y-43607397D01*
X37306328Y-43714585D01*
X37115313Y-43853366D01*
X36948366Y-44020313D01*
X36809585Y-44211328D01*
X36702397Y-44421697D01*
X36629434Y-44646252D01*
X36613398Y-44747500D01*
X37642499Y-44747500D01*
X37617479Y-44807902D01*
X37592500Y-44933481D01*
X37592500Y-45061519D01*
X37617479Y-45187098D01*
X37642499Y-45247500D01*
X36613398Y-45247500D01*
X30558815Y-45247500D01*
X30437657Y-28155006D01*
X41439700Y-28155006D01*
X41458864Y-28386297D01*
X41458866Y-28386308D01*
X41515842Y-28611300D01*
X41609075Y-28823848D01*
X41736016Y-29018147D01*
X41736019Y-29018151D01*
X41736021Y-29018153D01*
X41893216Y-29188913D01*
X41893219Y-29188915D01*
X41893222Y-29188918D01*
X42076365Y-29331464D01*
X42076371Y-29331468D01*
X42076374Y-29331470D01*
X42280497Y-29441936D01*
X42394487Y-29481068D01*
X42500015Y-29517297D01*
X42500017Y-29517297D01*
X42500019Y-29517298D01*
X42728951Y-29555500D01*
X42728952Y-29555500D01*
X42961048Y-29555500D01*
X42961049Y-29555500D01*
X43189981Y-29517298D01*
X43409503Y-29441936D01*
X43613626Y-29331470D01*
X43613634Y-29331464D01*
X43677640Y-29281647D01*
X43742634Y-29256004D01*
X43753802Y-29255500D01*
X57659496Y-29255500D01*
X57726535Y-29275185D01*
X57747177Y-29291819D01*
X63742603Y-35287245D01*
X63776088Y-35348568D01*
X63771104Y-35418260D01*
X63729232Y-35474193D01*
X63663768Y-35498610D01*
X63620130Y-35492336D01*
X63619930Y-35493187D01*
X63612372Y-35491401D01*
X63552844Y-35485000D01*
X62905000Y-35485000D01*
X62905000Y-36401988D01*
X62847993Y-36369075D01*
X62720826Y-36335000D01*
X62589174Y-36335000D01*
X62462007Y-36369075D01*
X62405000Y-36401988D01*
X62405000Y-35485000D01*
X61757155Y-35485000D01*
X61697627Y-35491401D01*
X61697620Y-35491403D01*
X61562913Y-35541645D01*
X61562906Y-35541649D01*
X61447812Y-35627809D01*
X61447809Y-35627812D01*
X61361649Y-35742906D01*
X61361645Y-35742913D01*
X61311403Y-35877620D01*
X61311401Y-35877627D01*
X61305000Y-35937155D01*
X61305000Y-36585000D01*
X62221988Y-36585000D01*
X62189075Y-36642007D01*
X62155000Y-36769174D01*
X62155000Y-36900826D01*
X62189075Y-37027993D01*
X62221988Y-37085000D01*
X61305000Y-37085000D01*
X61305000Y-37732844D01*
X61311401Y-37792372D01*
X61311403Y-37792379D01*
X61361645Y-37927086D01*
X61361649Y-37927093D01*
X61447809Y-38042187D01*
X61447812Y-38042190D01*
X61562906Y-38128350D01*
X61562913Y-38128354D01*
X61697620Y-38178596D01*
X61697627Y-38178598D01*
X61757155Y-38184999D01*
X61757172Y-38185000D01*
X62405000Y-38185000D01*
X62405000Y-37268012D01*
X62462007Y-37300925D01*
X62589174Y-37335000D01*
X62720826Y-37335000D01*
X62847993Y-37300925D01*
X62905000Y-37268012D01*
X62905000Y-38185000D01*
X63552828Y-38185000D01*
X63552844Y-38184999D01*
X63612372Y-38178598D01*
X63612379Y-38178596D01*
X63747086Y-38128354D01*
X63747093Y-38128350D01*
X63862187Y-38042190D01*
X63862190Y-38042187D01*
X63871234Y-38030107D01*
X63927168Y-37988236D01*
X63996859Y-37983252D01*
X64058182Y-38016738D01*
X64091666Y-38078061D01*
X64094500Y-38104418D01*
X64094500Y-43234910D01*
X64121597Y-43405998D01*
X64135931Y-43450113D01*
X64142000Y-43488431D01*
X64142000Y-43774611D01*
X64122315Y-43841650D01*
X64105681Y-43862292D01*
X63947985Y-44019987D01*
X63947985Y-44019988D01*
X63947983Y-44019990D01*
X63888362Y-44102050D01*
X63809157Y-44211066D01*
X63701933Y-44421503D01*
X63628946Y-44646131D01*
X63592000Y-44879402D01*
X63592000Y-45115597D01*
X63628946Y-45348868D01*
X63701933Y-45573496D01*
X63754798Y-45677248D01*
X63809157Y-45783933D01*
X63947983Y-45975010D01*
X63947985Y-45975012D01*
X64105681Y-46132708D01*
X64139166Y-46194031D01*
X64142000Y-46220389D01*
X64142000Y-57510910D01*
X64157908Y-57611354D01*
X64169098Y-57682001D01*
X64222627Y-57846745D01*
X64301268Y-58001088D01*
X64403086Y-58141228D01*
X64403088Y-58141230D01*
X75743181Y-69481323D01*
X75776666Y-69542646D01*
X75779500Y-69569004D01*
X75779500Y-73009789D01*
X75779500Y-73183011D01*
X75806598Y-73354101D01*
X75860127Y-73518845D01*
X75938768Y-73673188D01*
X76040586Y-73813328D01*
X76040588Y-73813330D01*
X77158281Y-74931023D01*
X77191766Y-74992346D01*
X77194600Y-75018704D01*
X77194600Y-83826710D01*
X77221333Y-83995500D01*
X77221698Y-83997801D01*
X77275227Y-84162545D01*
X77353868Y-84316888D01*
X77455686Y-84457028D01*
X77455688Y-84457030D01*
X78626270Y-85627612D01*
X78658364Y-85683200D01*
X78716094Y-85898655D01*
X78716096Y-85898659D01*
X78716097Y-85898663D01*
X78815965Y-86112830D01*
X78815967Y-86112834D01*
X78924281Y-86267521D01*
X78951505Y-86306401D01*
X79118599Y-86473495D01*
X79215384Y-86541265D01*
X79312165Y-86609032D01*
X79312167Y-86609033D01*
X79312170Y-86609035D01*
X79526337Y-86708903D01*
X79754592Y-86770063D01*
X79942918Y-86786539D01*
X79989999Y-86790659D01*
X79990000Y-86790659D01*
X79990001Y-86790659D01*
X80029234Y-86787226D01*
X80225408Y-86770063D01*
X80453663Y-86708903D01*
X80667830Y-86609035D01*
X80861401Y-86473495D01*
X81028495Y-86306401D01*
X81164035Y-86112830D01*
X81263903Y-85898663D01*
X81325063Y-85670408D01*
X81345659Y-85435000D01*
X81325063Y-85199592D01*
X81263903Y-84971337D01*
X81164035Y-84757171D01*
X81028495Y-84563599D01*
X81028494Y-84563597D01*
X80861402Y-84396506D01*
X80861401Y-84396505D01*
X80739746Y-84311321D01*
X80675841Y-84266574D01*
X80632216Y-84211997D01*
X80625024Y-84142498D01*
X80656546Y-84080144D01*
X80675835Y-84063429D01*
X80740824Y-84017923D01*
X80807030Y-83995597D01*
X80811946Y-83995500D01*
X81728310Y-83995500D01*
X81728311Y-83995500D01*
X81899401Y-83968402D01*
X82064145Y-83914873D01*
X82218488Y-83836232D01*
X82358628Y-83734414D01*
X82481114Y-83611928D01*
X82582932Y-83471788D01*
X82661573Y-83317445D01*
X82715102Y-83152701D01*
X82742200Y-82981611D01*
X82742200Y-82294904D01*
X82761885Y-82227865D01*
X82778519Y-82207223D01*
X85156119Y-79829623D01*
X85217442Y-79796138D01*
X85287134Y-79801122D01*
X85343067Y-79842994D01*
X85367484Y-79908458D01*
X85367800Y-79917304D01*
X85367800Y-88410589D01*
X85367800Y-88583811D01*
X85394898Y-88754901D01*
X85448427Y-88919645D01*
X85527068Y-89073988D01*
X85628886Y-89214128D01*
X86594086Y-90179328D01*
X86716572Y-90301814D01*
X86856712Y-90403632D01*
X87011055Y-90482273D01*
X87175799Y-90535802D01*
X87346889Y-90562900D01*
X87346890Y-90562900D01*
X118820610Y-90562900D01*
X118820611Y-90562900D01*
X118991701Y-90535802D01*
X119156445Y-90482273D01*
X119310788Y-90403632D01*
X119450928Y-90301814D01*
X136983214Y-72769528D01*
X137085032Y-72629388D01*
X137163673Y-72475046D01*
X137217202Y-72310301D01*
X137244300Y-72139211D01*
X137244300Y-71965990D01*
X137244300Y-70195430D01*
X137692000Y-70195430D01*
X137708466Y-70299390D01*
X137732026Y-70448140D01*
X137811088Y-70691472D01*
X137811089Y-70691475D01*
X137816917Y-70702912D01*
X137904010Y-70873841D01*
X137927250Y-70919450D01*
X138077632Y-71126435D01*
X138077636Y-71126440D01*
X138258559Y-71307363D01*
X138258564Y-71307367D01*
X138439107Y-71438538D01*
X138465553Y-71457752D01*
X138608315Y-71530493D01*
X138693524Y-71573910D01*
X138693527Y-71573911D01*
X138815193Y-71613442D01*
X138936861Y-71652974D01*
X139189570Y-71693000D01*
X139189571Y-71693000D01*
X139445429Y-71693000D01*
X139445430Y-71693000D01*
X139698139Y-71652974D01*
X139941475Y-71573910D01*
X140169447Y-71457752D01*
X140376442Y-71307362D01*
X140557362Y-71126442D01*
X140707752Y-70919447D01*
X140823910Y-70691475D01*
X140902974Y-70448139D01*
X140943000Y-70195430D01*
X140943000Y-69939570D01*
X140902974Y-69686861D01*
X140823910Y-69443525D01*
X140823910Y-69443524D01*
X140749506Y-69297500D01*
X140707752Y-69215553D01*
X140585655Y-69047500D01*
X140557367Y-69008564D01*
X140557363Y-69008559D01*
X140376440Y-68827636D01*
X140376435Y-68827632D01*
X140169450Y-68677250D01*
X140169449Y-68677249D01*
X140169447Y-68677248D01*
X140095066Y-68639349D01*
X139941475Y-68561089D01*
X139941472Y-68561088D01*
X139698140Y-68482026D01*
X139571784Y-68462013D01*
X139445430Y-68442000D01*
X139189570Y-68442000D01*
X139105333Y-68455342D01*
X138936859Y-68482026D01*
X138693527Y-68561088D01*
X138693524Y-68561089D01*
X138465549Y-68677250D01*
X138258564Y-68827632D01*
X138258559Y-68827636D01*
X138077636Y-69008559D01*
X138077632Y-69008564D01*
X137927250Y-69215549D01*
X137811089Y-69443524D01*
X137811088Y-69443527D01*
X137732026Y-69686859D01*
X137699878Y-69889831D01*
X137692000Y-69939570D01*
X137692000Y-70195430D01*
X137244300Y-70195430D01*
X137244300Y-54835089D01*
X137217202Y-54663999D01*
X137165180Y-54503893D01*
X137164118Y-54500127D01*
X137085031Y-54344911D01*
X136983214Y-54204772D01*
X129973871Y-47195429D01*
X137692000Y-47195429D01*
X137732026Y-47448140D01*
X137811088Y-47691472D01*
X137811089Y-47691475D01*
X137890033Y-47846410D01*
X137917723Y-47900754D01*
X137927250Y-47919450D01*
X138077632Y-48126435D01*
X138077636Y-48126440D01*
X138258559Y-48307363D01*
X138258564Y-48307367D01*
X138439107Y-48438538D01*
X138465553Y-48457752D01*
X138614580Y-48533685D01*
X138693524Y-48573910D01*
X138693527Y-48573911D01*
X138815193Y-48613442D01*
X138936861Y-48652974D01*
X139189570Y-48693000D01*
X139189571Y-48693000D01*
X139445429Y-48693000D01*
X139445430Y-48693000D01*
X139698139Y-48652974D01*
X139941475Y-48573910D01*
X140169447Y-48457752D01*
X140376442Y-48307362D01*
X140557362Y-48126442D01*
X140707752Y-47919447D01*
X140823910Y-47691475D01*
X140902974Y-47448139D01*
X140943000Y-47195430D01*
X140943000Y-46939570D01*
X140902974Y-46686861D01*
X140863442Y-46565193D01*
X140823911Y-46443527D01*
X140823910Y-46443524D01*
X140740800Y-46280414D01*
X140707752Y-46215553D01*
X140626375Y-46103546D01*
X140557367Y-46008564D01*
X140557363Y-46008559D01*
X140376440Y-45827636D01*
X140376435Y-45827632D01*
X140169450Y-45677250D01*
X140169449Y-45677249D01*
X140169447Y-45677248D01*
X140062040Y-45622521D01*
X139941475Y-45561089D01*
X139941472Y-45561088D01*
X139698140Y-45482026D01*
X139571784Y-45462013D01*
X139445430Y-45442000D01*
X139189570Y-45442000D01*
X139105333Y-45455342D01*
X138936859Y-45482026D01*
X138693527Y-45561088D01*
X138693524Y-45561089D01*
X138465549Y-45677250D01*
X138258564Y-45827632D01*
X138258559Y-45827636D01*
X138077636Y-46008559D01*
X138077632Y-46008564D01*
X137927250Y-46215549D01*
X137811089Y-46443524D01*
X137811088Y-46443527D01*
X137732026Y-46686859D01*
X137692000Y-46939570D01*
X137692000Y-47195429D01*
X129973871Y-47195429D01*
X106942172Y-24163730D01*
X106908687Y-24102407D01*
X106906277Y-24086295D01*
X106905108Y-24072179D01*
X106859822Y-23893350D01*
X106844063Y-23831118D01*
X106744173Y-23603393D01*
X106608166Y-23395217D01*
X106558061Y-23340789D01*
X106439744Y-23212262D01*
X106338623Y-23133556D01*
X106297810Y-23076846D01*
X106293697Y-23047249D01*
X105549409Y-22302962D01*
X105612993Y-22285925D01*
X105727007Y-22220099D01*
X105820099Y-22127007D01*
X105885925Y-22012993D01*
X105902962Y-21949410D01*
X106643434Y-22689882D01*
X106743731Y-22536369D01*
X106843587Y-22308717D01*
X106904612Y-22067738D01*
X106904614Y-22067729D01*
X106925141Y-21820005D01*
X106925141Y-21819994D01*
X106904614Y-21572270D01*
X106904612Y-21572261D01*
X106843587Y-21331282D01*
X106743731Y-21103630D01*
X106643434Y-20950116D01*
X105902962Y-21690589D01*
X105885925Y-21627007D01*
X105820099Y-21512993D01*
X105727007Y-21419901D01*
X105612993Y-21354075D01*
X105549410Y-21337037D01*
X106290057Y-20596390D01*
X106290056Y-20596389D01*
X106243229Y-20559943D01*
X106024614Y-20441635D01*
X106024603Y-20441630D01*
X105789493Y-20360916D01*
X105544293Y-20320000D01*
X105295707Y-20320000D01*
X105050506Y-20360916D01*
X104815396Y-20441630D01*
X104815390Y-20441632D01*
X104596761Y-20559949D01*
X104549942Y-20596388D01*
X104549942Y-20596390D01*
X105290590Y-21337037D01*
X105227007Y-21354075D01*
X105112993Y-21419901D01*
X105019901Y-21512993D01*
X104954075Y-21627007D01*
X104937037Y-21690589D01*
X104196564Y-20950116D01*
X104096267Y-21103632D01*
X103996412Y-21331282D01*
X103935387Y-21572261D01*
X103935385Y-21572270D01*
X103914859Y-21819994D01*
X103914859Y-21820005D01*
X103935385Y-22067729D01*
X103935387Y-22067738D01*
X103996412Y-22308717D01*
X104096266Y-22536364D01*
X104196564Y-22689882D01*
X104937037Y-21949409D01*
X104954075Y-22012993D01*
X105019901Y-22127007D01*
X105112993Y-22220099D01*
X105227007Y-22285925D01*
X105290590Y-22302962D01*
X104544100Y-23049450D01*
X104533482Y-23096148D01*
X104501376Y-23133556D01*
X104400255Y-23212262D01*
X104231833Y-23395217D01*
X104095826Y-23603393D01*
X103995936Y-23831118D01*
X103934892Y-24072175D01*
X103934890Y-24072187D01*
X103914357Y-24319994D01*
X103914357Y-24320005D01*
X103934890Y-24567812D01*
X103934892Y-24567824D01*
X103995936Y-24808881D01*
X104095826Y-25036606D01*
X104231833Y-25244782D01*
X104231836Y-25244785D01*
X104400256Y-25427738D01*
X104457312Y-25472147D01*
X104498125Y-25528857D01*
X104501800Y-25598630D01*
X104467169Y-25659313D01*
X104457317Y-25667848D01*
X104424552Y-25693352D01*
X104400257Y-25712261D01*
X104231833Y-25895217D01*
X104095826Y-26103393D01*
X103995936Y-26331118D01*
X103934891Y-26572181D01*
X103931779Y-26609733D01*
X103906625Y-26674918D01*
X103895884Y-26687172D01*
X101444772Y-29138286D01*
X101322288Y-29260769D01*
X101322288Y-29260770D01*
X101322286Y-29260772D01*
X101299729Y-29291819D01*
X101220468Y-29400911D01*
X101141828Y-29555252D01*
X101088297Y-29720002D01*
X101074220Y-29808881D01*
X101061200Y-29891089D01*
X101061200Y-60173389D01*
X101061200Y-60346611D01*
X101088298Y-60517701D01*
X101141827Y-60682445D01*
X101220468Y-60836788D01*
X101322286Y-60976928D01*
X101322288Y-60976930D01*
X107910681Y-67565323D01*
X107944166Y-67626646D01*
X107947000Y-67653004D01*
X107947000Y-67975554D01*
X107927315Y-68042593D01*
X107924589Y-68046656D01*
X107879073Y-68111660D01*
X107824499Y-68155284D01*
X107755001Y-68162478D01*
X107692646Y-68130956D01*
X107675925Y-68111659D01*
X107545994Y-67926097D01*
X107378902Y-67759006D01*
X107378895Y-67759001D01*
X107185334Y-67623467D01*
X107185330Y-67623465D01*
X107179960Y-67620961D01*
X106971163Y-67523597D01*
X106971159Y-67523596D01*
X106971155Y-67523594D01*
X106742913Y-67462438D01*
X106742903Y-67462436D01*
X106507501Y-67441841D01*
X106507499Y-67441841D01*
X106272096Y-67462436D01*
X106272086Y-67462438D01*
X106043844Y-67523594D01*
X106043837Y-67523596D01*
X106043837Y-67523597D01*
X106030316Y-67529901D01*
X105829671Y-67623464D01*
X105829669Y-67623465D01*
X105636097Y-67759005D01*
X105469008Y-67926094D01*
X105339074Y-68111660D01*
X105284497Y-68155284D01*
X105214998Y-68162477D01*
X105152644Y-68130955D01*
X105135924Y-68111658D01*
X105090425Y-68046677D01*
X105090424Y-68046675D01*
X105068097Y-67980469D01*
X105068000Y-67975554D01*
X105068000Y-67059189D01*
X105040902Y-66888101D01*
X105040902Y-66888099D01*
X104988880Y-66727993D01*
X104987818Y-66724227D01*
X104908731Y-66569011D01*
X104806914Y-66428872D01*
X100170419Y-61792377D01*
X100136934Y-61731054D01*
X100134100Y-61704696D01*
X100134100Y-48236589D01*
X100116653Y-48126435D01*
X100107002Y-48065499D01*
X100053473Y-47900754D01*
X100053471Y-47900751D01*
X100053471Y-47900749D01*
X99974831Y-47746411D01*
X99873014Y-47606272D01*
X81443229Y-29176487D01*
X81409744Y-29115164D01*
X81407334Y-29099053D01*
X81405108Y-29072179D01*
X81375156Y-28953901D01*
X81344063Y-28831118D01*
X81244173Y-28603393D01*
X81108166Y-28395217D01*
X81073749Y-28357830D01*
X80939744Y-28212262D01*
X80882685Y-28167851D01*
X80841874Y-28111143D01*
X80838199Y-28041370D01*
X80872830Y-27980687D01*
X80882675Y-27972156D01*
X80939744Y-27927738D01*
X81108164Y-27744785D01*
X81244173Y-27536607D01*
X81344063Y-27308881D01*
X81405108Y-27067821D01*
X81407843Y-27034815D01*
X81425643Y-26820005D01*
X81425643Y-26819994D01*
X81405109Y-26572187D01*
X81405107Y-26572175D01*
X81344063Y-26331118D01*
X81244173Y-26103393D01*
X81108166Y-25895217D01*
X81063132Y-25846297D01*
X80939744Y-25712262D01*
X80838623Y-25633556D01*
X80797810Y-25576846D01*
X80793697Y-25547249D01*
X80049409Y-24802962D01*
X80112993Y-24785925D01*
X80227007Y-24720099D01*
X80320099Y-24627007D01*
X80385925Y-24512993D01*
X80402962Y-24449410D01*
X81143434Y-25189882D01*
X81243731Y-25036369D01*
X81343587Y-24808717D01*
X81404612Y-24567738D01*
X81404614Y-24567729D01*
X81425141Y-24320005D01*
X81425141Y-24319994D01*
X81404614Y-24072270D01*
X81404612Y-24072261D01*
X81343587Y-23831282D01*
X81243731Y-23603630D01*
X81143434Y-23450116D01*
X80402962Y-24190589D01*
X80385925Y-24127007D01*
X80320099Y-24012993D01*
X80227007Y-23919901D01*
X80112993Y-23854075D01*
X80049410Y-23837037D01*
X80790055Y-23096391D01*
X80788894Y-23077679D01*
X80788894Y-23062314D01*
X80790055Y-23043608D01*
X80049409Y-22302962D01*
X80112993Y-22285925D01*
X80227007Y-22220099D01*
X80320099Y-22127007D01*
X80385925Y-22012993D01*
X80402962Y-21949410D01*
X81143434Y-22689882D01*
X81243731Y-22536369D01*
X81343587Y-22308717D01*
X81404612Y-22067738D01*
X81404614Y-22067729D01*
X81425141Y-21820005D01*
X81425141Y-21819994D01*
X81404614Y-21572270D01*
X81404612Y-21572261D01*
X81343587Y-21331282D01*
X81243731Y-21103630D01*
X81143434Y-20950116D01*
X80402962Y-21690589D01*
X80385925Y-21627007D01*
X80320099Y-21512993D01*
X80227007Y-21419901D01*
X80112993Y-21354075D01*
X80049410Y-21337037D01*
X80790057Y-20596390D01*
X80790056Y-20596389D01*
X80743229Y-20559943D01*
X80524614Y-20441635D01*
X80524603Y-20441630D01*
X80289493Y-20360916D01*
X80044293Y-20320000D01*
X79795707Y-20320000D01*
X79550506Y-20360916D01*
X79315396Y-20441630D01*
X79315390Y-20441632D01*
X79096761Y-20559949D01*
X79049942Y-20596388D01*
X79049942Y-20596390D01*
X79790590Y-21337037D01*
X79727007Y-21354075D01*
X79612993Y-21419901D01*
X79519901Y-21512993D01*
X79454075Y-21627007D01*
X79437037Y-21690589D01*
X78696564Y-20950116D01*
X78596267Y-21103632D01*
X78496412Y-21331282D01*
X78435387Y-21572261D01*
X78435385Y-21572270D01*
X78414859Y-21819994D01*
X78414859Y-21820005D01*
X78435385Y-22067729D01*
X78435387Y-22067738D01*
X78496412Y-22308717D01*
X78596266Y-22536364D01*
X78696564Y-22689882D01*
X79437037Y-21949409D01*
X79454075Y-22012993D01*
X79519901Y-22127007D01*
X79612993Y-22220099D01*
X79727007Y-22285925D01*
X79790590Y-22302962D01*
X79049941Y-23043610D01*
X79051103Y-23062313D01*
X79051103Y-23077680D01*
X79049941Y-23096389D01*
X79790590Y-23837037D01*
X79727007Y-23854075D01*
X79612993Y-23919901D01*
X79519901Y-24012993D01*
X79454075Y-24127007D01*
X79437037Y-24190589D01*
X78696564Y-23450116D01*
X78596267Y-23603632D01*
X78496412Y-23831282D01*
X78435387Y-24072261D01*
X78435385Y-24072270D01*
X78414859Y-24319994D01*
X78414859Y-24320005D01*
X78435385Y-24567729D01*
X78435387Y-24567738D01*
X78496412Y-24808717D01*
X78596266Y-25036364D01*
X78696564Y-25189882D01*
X79437037Y-24449409D01*
X79454075Y-24512993D01*
X79519901Y-24627007D01*
X79612993Y-24720099D01*
X79727007Y-24785925D01*
X79790590Y-24802962D01*
X79044100Y-25549450D01*
X79033482Y-25596148D01*
X79001376Y-25633555D01*
X78924551Y-25693352D01*
X78859557Y-25718996D01*
X78848387Y-25719500D01*
X74856504Y-25719500D01*
X74789465Y-25699815D01*
X74768823Y-25683181D01*
X69194530Y-20108888D01*
X69194528Y-20108886D01*
X69054388Y-20007068D01*
X68900045Y-19928427D01*
X68735301Y-19874898D01*
X68735299Y-19874897D01*
X68735298Y-19874897D01*
X68603871Y-19854081D01*
X68564211Y-19847800D01*
X60299011Y-19847800D01*
X60125789Y-19847800D01*
X60086128Y-19854081D01*
X59954702Y-19874897D01*
X59789952Y-19928428D01*
X59635611Y-20007068D01*
X59555656Y-20065159D01*
X59495472Y-20108886D01*
X59495470Y-20108888D01*
X59495469Y-20108888D01*
X56893888Y-22710469D01*
X56893888Y-22710470D01*
X56893886Y-22710472D01*
X56852094Y-22767993D01*
X56792068Y-22850611D01*
X56713428Y-23004952D01*
X56659897Y-23169702D01*
X56632800Y-23340789D01*
X56632800Y-24390500D01*
X56613115Y-24457539D01*
X56560311Y-24503294D01*
X56508800Y-24514500D01*
X44213433Y-24514500D01*
X44146394Y-24494815D01*
X44100639Y-24442011D01*
X44090695Y-24372853D01*
X44114167Y-24316189D01*
X44188350Y-24217093D01*
X44188354Y-24217086D01*
X44238596Y-24082379D01*
X44238598Y-24082372D01*
X44244999Y-24022844D01*
X44245000Y-24022827D01*
X44245000Y-23325000D01*
X43278012Y-23325000D01*
X43310925Y-23267993D01*
X43345000Y-23140826D01*
X43345000Y-23009174D01*
X43310925Y-22882007D01*
X43278012Y-22825000D01*
X44245000Y-22825000D01*
X44245000Y-22127172D01*
X44244999Y-22127155D01*
X44238598Y-22067627D01*
X44238596Y-22067620D01*
X44188354Y-21932913D01*
X44188350Y-21932906D01*
X44102190Y-21817812D01*
X44102187Y-21817809D01*
X43987093Y-21731649D01*
X43987086Y-21731645D01*
X43852379Y-21681403D01*
X43852372Y-21681401D01*
X43792844Y-21675000D01*
X43095000Y-21675000D01*
X43095000Y-22641988D01*
X43037993Y-22609075D01*
X42910826Y-22575000D01*
X42779174Y-22575000D01*
X42652007Y-22609075D01*
X42595000Y-22641988D01*
X42595000Y-21675000D01*
X41897155Y-21675000D01*
X41837627Y-21681401D01*
X41837620Y-21681403D01*
X41702913Y-21731645D01*
X41702906Y-21731649D01*
X41587812Y-21817809D01*
X41587809Y-21817812D01*
X41501649Y-21932906D01*
X41501645Y-21932913D01*
X41451403Y-22067620D01*
X41451401Y-22067627D01*
X41445000Y-22127155D01*
X41445000Y-22825000D01*
X42411988Y-22825000D01*
X42379075Y-22882007D01*
X42345000Y-23009174D01*
X42345000Y-23140826D01*
X42379075Y-23267993D01*
X42411988Y-23325000D01*
X41445000Y-23325000D01*
X41445000Y-24022844D01*
X41451401Y-24082372D01*
X41451403Y-24082379D01*
X41501645Y-24217086D01*
X41501649Y-24217093D01*
X41587809Y-24332187D01*
X41587812Y-24332190D01*
X41702906Y-24418350D01*
X41702913Y-24418354D01*
X41783270Y-24448325D01*
X41839204Y-24490196D01*
X41863621Y-24555660D01*
X41848770Y-24623933D01*
X41831168Y-24648489D01*
X41805526Y-24676344D01*
X41736021Y-24751847D01*
X41736019Y-24751848D01*
X41736016Y-24751853D01*
X41609075Y-24946151D01*
X41515842Y-25158699D01*
X41458866Y-25383691D01*
X41458864Y-25383702D01*
X41439700Y-25614993D01*
X41439700Y-25615006D01*
X41458864Y-25846297D01*
X41458866Y-25846308D01*
X41515842Y-26071300D01*
X41609075Y-26283848D01*
X41736016Y-26478147D01*
X41736019Y-26478151D01*
X41736021Y-26478153D01*
X41893216Y-26648913D01*
X41893219Y-26648915D01*
X41893222Y-26648918D01*
X42070818Y-26787147D01*
X42111631Y-26843857D01*
X42115306Y-26913630D01*
X42080674Y-26974313D01*
X42070818Y-26982853D01*
X41893222Y-27121081D01*
X41893219Y-27121084D01*
X41736016Y-27291852D01*
X41609075Y-27486151D01*
X41515842Y-27698699D01*
X41458866Y-27923691D01*
X41458864Y-27923702D01*
X41439700Y-28154993D01*
X41439700Y-28155006D01*
X30437657Y-28155006D01*
X30388464Y-21214979D01*
X30407673Y-21147806D01*
X30460151Y-21101678D01*
X30529238Y-21091244D01*
X30544543Y-21094326D01*
X30567762Y-21100548D01*
X30795266Y-21130500D01*
X30795273Y-21130500D01*
X31024727Y-21130500D01*
X31024734Y-21130500D01*
X31252238Y-21100548D01*
X31473887Y-21041158D01*
X31685888Y-20953344D01*
X31884612Y-20838611D01*
X32066661Y-20698919D01*
X32066665Y-20698914D01*
X32066670Y-20698911D01*
X32228911Y-20536670D01*
X32228914Y-20536665D01*
X32228919Y-20536661D01*
X32368611Y-20354612D01*
X32483344Y-20155888D01*
X32571158Y-19943887D01*
X32630548Y-19722238D01*
X32660500Y-19494734D01*
X32660500Y-19265266D01*
X32630548Y-19037762D01*
X32571158Y-18816113D01*
X32548515Y-18761449D01*
X32541047Y-18691984D01*
X32572322Y-18629505D01*
X32632410Y-18593852D01*
X32663077Y-18590000D01*
X147688637Y-18590000D01*
X147755676Y-18609685D01*
G37*
%TD.AperFunction*%
%TD*%
M02*
