%TF.GenerationSoftware,KiCad,Pcbnew,8.0.0*%
%TF.CreationDate,2024-08-20T19:28:26+02:00*%
%TF.ProjectId,MK1,4d4b312e-6b69-4636-9164-5f7063625858,rev?*%
%TF.SameCoordinates,Original*%
%TF.FileFunction,Legend,Top*%
%TF.FilePolarity,Positive*%
%FSLAX46Y46*%
G04 Gerber Fmt 4.6, Leading zero omitted, Abs format (unit mm)*
G04 Created by KiCad (PCBNEW 8.0.0) date 2024-08-20 19:28:26*
%MOMM*%
%LPD*%
G01*
G04 APERTURE LIST*
%ADD10C,0.100000*%
%ADD11C,0.150000*%
%ADD12C,0.120000*%
G04 APERTURE END LIST*
D10*
X27500000Y-16000000D02*
X152780000Y-16000000D01*
X152780000Y-120420000D01*
X27500000Y-120420000D01*
X27500000Y-16000000D01*
D11*
X29516666Y-113374819D02*
X29183333Y-112898628D01*
X28945238Y-113374819D02*
X28945238Y-112374819D01*
X28945238Y-112374819D02*
X29326190Y-112374819D01*
X29326190Y-112374819D02*
X29421428Y-112422438D01*
X29421428Y-112422438D02*
X29469047Y-112470057D01*
X29469047Y-112470057D02*
X29516666Y-112565295D01*
X29516666Y-112565295D02*
X29516666Y-112708152D01*
X29516666Y-112708152D02*
X29469047Y-112803390D01*
X29469047Y-112803390D02*
X29421428Y-112851009D01*
X29421428Y-112851009D02*
X29326190Y-112898628D01*
X29326190Y-112898628D02*
X28945238Y-112898628D01*
X29945238Y-112851009D02*
X30278571Y-112851009D01*
X30421428Y-113374819D02*
X29945238Y-113374819D01*
X29945238Y-113374819D02*
X29945238Y-112374819D01*
X29945238Y-112374819D02*
X30421428Y-112374819D01*
X31183333Y-112851009D02*
X30850000Y-112851009D01*
X30850000Y-113374819D02*
X30850000Y-112374819D01*
X30850000Y-112374819D02*
X31326190Y-112374819D01*
X31850000Y-112374819D02*
X31850000Y-112612914D01*
X31611905Y-112517676D02*
X31850000Y-112612914D01*
X31850000Y-112612914D02*
X32088095Y-112517676D01*
X31707143Y-112803390D02*
X31850000Y-112612914D01*
X31850000Y-112612914D02*
X31992857Y-112803390D01*
X32611905Y-112374819D02*
X32611905Y-112612914D01*
X32373810Y-112517676D02*
X32611905Y-112612914D01*
X32611905Y-112612914D02*
X32850000Y-112517676D01*
X32469048Y-112803390D02*
X32611905Y-112612914D01*
X32611905Y-112612914D02*
X32754762Y-112803390D01*
X148056666Y-113354819D02*
X147723333Y-112878628D01*
X147485238Y-113354819D02*
X147485238Y-112354819D01*
X147485238Y-112354819D02*
X147866190Y-112354819D01*
X147866190Y-112354819D02*
X147961428Y-112402438D01*
X147961428Y-112402438D02*
X148009047Y-112450057D01*
X148009047Y-112450057D02*
X148056666Y-112545295D01*
X148056666Y-112545295D02*
X148056666Y-112688152D01*
X148056666Y-112688152D02*
X148009047Y-112783390D01*
X148009047Y-112783390D02*
X147961428Y-112831009D01*
X147961428Y-112831009D02*
X147866190Y-112878628D01*
X147866190Y-112878628D02*
X147485238Y-112878628D01*
X148485238Y-112831009D02*
X148818571Y-112831009D01*
X148961428Y-113354819D02*
X148485238Y-113354819D01*
X148485238Y-113354819D02*
X148485238Y-112354819D01*
X148485238Y-112354819D02*
X148961428Y-112354819D01*
X149723333Y-112831009D02*
X149390000Y-112831009D01*
X149390000Y-113354819D02*
X149390000Y-112354819D01*
X149390000Y-112354819D02*
X149866190Y-112354819D01*
X150390000Y-112354819D02*
X150390000Y-112592914D01*
X150151905Y-112497676D02*
X150390000Y-112592914D01*
X150390000Y-112592914D02*
X150628095Y-112497676D01*
X150247143Y-112783390D02*
X150390000Y-112592914D01*
X150390000Y-112592914D02*
X150532857Y-112783390D01*
X151151905Y-112354819D02*
X151151905Y-112592914D01*
X150913810Y-112497676D02*
X151151905Y-112592914D01*
X151151905Y-112592914D02*
X151390000Y-112497676D01*
X151009048Y-112783390D02*
X151151905Y-112592914D01*
X151151905Y-112592914D02*
X151294762Y-112783390D01*
X148116666Y-15814819D02*
X147783333Y-15338628D01*
X147545238Y-15814819D02*
X147545238Y-14814819D01*
X147545238Y-14814819D02*
X147926190Y-14814819D01*
X147926190Y-14814819D02*
X148021428Y-14862438D01*
X148021428Y-14862438D02*
X148069047Y-14910057D01*
X148069047Y-14910057D02*
X148116666Y-15005295D01*
X148116666Y-15005295D02*
X148116666Y-15148152D01*
X148116666Y-15148152D02*
X148069047Y-15243390D01*
X148069047Y-15243390D02*
X148021428Y-15291009D01*
X148021428Y-15291009D02*
X147926190Y-15338628D01*
X147926190Y-15338628D02*
X147545238Y-15338628D01*
X148545238Y-15291009D02*
X148878571Y-15291009D01*
X149021428Y-15814819D02*
X148545238Y-15814819D01*
X148545238Y-15814819D02*
X148545238Y-14814819D01*
X148545238Y-14814819D02*
X149021428Y-14814819D01*
X149783333Y-15291009D02*
X149450000Y-15291009D01*
X149450000Y-15814819D02*
X149450000Y-14814819D01*
X149450000Y-14814819D02*
X149926190Y-14814819D01*
X150450000Y-14814819D02*
X150450000Y-15052914D01*
X150211905Y-14957676D02*
X150450000Y-15052914D01*
X150450000Y-15052914D02*
X150688095Y-14957676D01*
X150307143Y-15243390D02*
X150450000Y-15052914D01*
X150450000Y-15052914D02*
X150592857Y-15243390D01*
X151211905Y-14814819D02*
X151211905Y-15052914D01*
X150973810Y-14957676D02*
X151211905Y-15052914D01*
X151211905Y-15052914D02*
X151450000Y-14957676D01*
X151069048Y-15243390D02*
X151211905Y-15052914D01*
X151211905Y-15052914D02*
X151354762Y-15243390D01*
X29576666Y-15834819D02*
X29243333Y-15358628D01*
X29005238Y-15834819D02*
X29005238Y-14834819D01*
X29005238Y-14834819D02*
X29386190Y-14834819D01*
X29386190Y-14834819D02*
X29481428Y-14882438D01*
X29481428Y-14882438D02*
X29529047Y-14930057D01*
X29529047Y-14930057D02*
X29576666Y-15025295D01*
X29576666Y-15025295D02*
X29576666Y-15168152D01*
X29576666Y-15168152D02*
X29529047Y-15263390D01*
X29529047Y-15263390D02*
X29481428Y-15311009D01*
X29481428Y-15311009D02*
X29386190Y-15358628D01*
X29386190Y-15358628D02*
X29005238Y-15358628D01*
X30005238Y-15311009D02*
X30338571Y-15311009D01*
X30481428Y-15834819D02*
X30005238Y-15834819D01*
X30005238Y-15834819D02*
X30005238Y-14834819D01*
X30005238Y-14834819D02*
X30481428Y-14834819D01*
X31243333Y-15311009D02*
X30910000Y-15311009D01*
X30910000Y-15834819D02*
X30910000Y-14834819D01*
X30910000Y-14834819D02*
X31386190Y-14834819D01*
X31910000Y-14834819D02*
X31910000Y-15072914D01*
X31671905Y-14977676D02*
X31910000Y-15072914D01*
X31910000Y-15072914D02*
X32148095Y-14977676D01*
X31767143Y-15263390D02*
X31910000Y-15072914D01*
X31910000Y-15072914D02*
X32052857Y-15263390D01*
X32671905Y-14834819D02*
X32671905Y-15072914D01*
X32433810Y-14977676D02*
X32671905Y-15072914D01*
X32671905Y-15072914D02*
X32910000Y-14977676D01*
X32529048Y-15263390D02*
X32671905Y-15072914D01*
X32671905Y-15072914D02*
X32814762Y-15263390D01*
X56830952Y-19724819D02*
X57449999Y-19724819D01*
X57449999Y-19724819D02*
X57116666Y-20105771D01*
X57116666Y-20105771D02*
X57259523Y-20105771D01*
X57259523Y-20105771D02*
X57354761Y-20153390D01*
X57354761Y-20153390D02*
X57402380Y-20201009D01*
X57402380Y-20201009D02*
X57449999Y-20296247D01*
X57449999Y-20296247D02*
X57449999Y-20534342D01*
X57449999Y-20534342D02*
X57402380Y-20629580D01*
X57402380Y-20629580D02*
X57354761Y-20677200D01*
X57354761Y-20677200D02*
X57259523Y-20724819D01*
X57259523Y-20724819D02*
X56973809Y-20724819D01*
X56973809Y-20724819D02*
X56878571Y-20677200D01*
X56878571Y-20677200D02*
X56830952Y-20629580D01*
X57878571Y-20629580D02*
X57926190Y-20677200D01*
X57926190Y-20677200D02*
X57878571Y-20724819D01*
X57878571Y-20724819D02*
X57830952Y-20677200D01*
X57830952Y-20677200D02*
X57878571Y-20629580D01*
X57878571Y-20629580D02*
X57878571Y-20724819D01*
X58259523Y-19724819D02*
X58878570Y-19724819D01*
X58878570Y-19724819D02*
X58545237Y-20105771D01*
X58545237Y-20105771D02*
X58688094Y-20105771D01*
X58688094Y-20105771D02*
X58783332Y-20153390D01*
X58783332Y-20153390D02*
X58830951Y-20201009D01*
X58830951Y-20201009D02*
X58878570Y-20296247D01*
X58878570Y-20296247D02*
X58878570Y-20534342D01*
X58878570Y-20534342D02*
X58830951Y-20629580D01*
X58830951Y-20629580D02*
X58783332Y-20677200D01*
X58783332Y-20677200D02*
X58688094Y-20724819D01*
X58688094Y-20724819D02*
X58402380Y-20724819D01*
X58402380Y-20724819D02*
X58307142Y-20677200D01*
X58307142Y-20677200D02*
X58259523Y-20629580D01*
X59164285Y-19724819D02*
X59497618Y-20724819D01*
X59497618Y-20724819D02*
X59830951Y-19724819D01*
X59926190Y-20820057D02*
X60688094Y-20820057D01*
X61497618Y-20724819D02*
X61164285Y-20248628D01*
X60926190Y-20724819D02*
X60926190Y-19724819D01*
X60926190Y-19724819D02*
X61307142Y-19724819D01*
X61307142Y-19724819D02*
X61402380Y-19772438D01*
X61402380Y-19772438D02*
X61449999Y-19820057D01*
X61449999Y-19820057D02*
X61497618Y-19915295D01*
X61497618Y-19915295D02*
X61497618Y-20058152D01*
X61497618Y-20058152D02*
X61449999Y-20153390D01*
X61449999Y-20153390D02*
X61402380Y-20201009D01*
X61402380Y-20201009D02*
X61307142Y-20248628D01*
X61307142Y-20248628D02*
X60926190Y-20248628D01*
X62307142Y-20677200D02*
X62211904Y-20724819D01*
X62211904Y-20724819D02*
X62021428Y-20724819D01*
X62021428Y-20724819D02*
X61926190Y-20677200D01*
X61926190Y-20677200D02*
X61878571Y-20581961D01*
X61878571Y-20581961D02*
X61878571Y-20201009D01*
X61878571Y-20201009D02*
X61926190Y-20105771D01*
X61926190Y-20105771D02*
X62021428Y-20058152D01*
X62021428Y-20058152D02*
X62211904Y-20058152D01*
X62211904Y-20058152D02*
X62307142Y-20105771D01*
X62307142Y-20105771D02*
X62354761Y-20201009D01*
X62354761Y-20201009D02*
X62354761Y-20296247D01*
X62354761Y-20296247D02*
X61878571Y-20391485D01*
X62926190Y-20724819D02*
X62830952Y-20677200D01*
X62830952Y-20677200D02*
X62783333Y-20581961D01*
X62783333Y-20581961D02*
X62783333Y-19724819D01*
X63735714Y-20724819D02*
X63735714Y-20201009D01*
X63735714Y-20201009D02*
X63688095Y-20105771D01*
X63688095Y-20105771D02*
X63592857Y-20058152D01*
X63592857Y-20058152D02*
X63402381Y-20058152D01*
X63402381Y-20058152D02*
X63307143Y-20105771D01*
X63735714Y-20677200D02*
X63640476Y-20724819D01*
X63640476Y-20724819D02*
X63402381Y-20724819D01*
X63402381Y-20724819D02*
X63307143Y-20677200D01*
X63307143Y-20677200D02*
X63259524Y-20581961D01*
X63259524Y-20581961D02*
X63259524Y-20486723D01*
X63259524Y-20486723D02*
X63307143Y-20391485D01*
X63307143Y-20391485D02*
X63402381Y-20343866D01*
X63402381Y-20343866D02*
X63640476Y-20343866D01*
X63640476Y-20343866D02*
X63735714Y-20296247D01*
X64211905Y-20724819D02*
X64211905Y-20058152D01*
X64211905Y-19724819D02*
X64164286Y-19772438D01*
X64164286Y-19772438D02*
X64211905Y-19820057D01*
X64211905Y-19820057D02*
X64259524Y-19772438D01*
X64259524Y-19772438D02*
X64211905Y-19724819D01*
X64211905Y-19724819D02*
X64211905Y-19820057D01*
X64640476Y-20677200D02*
X64735714Y-20724819D01*
X64735714Y-20724819D02*
X64926190Y-20724819D01*
X64926190Y-20724819D02*
X65021428Y-20677200D01*
X65021428Y-20677200D02*
X65069047Y-20581961D01*
X65069047Y-20581961D02*
X65069047Y-20534342D01*
X65069047Y-20534342D02*
X65021428Y-20439104D01*
X65021428Y-20439104D02*
X64926190Y-20391485D01*
X64926190Y-20391485D02*
X64783333Y-20391485D01*
X64783333Y-20391485D02*
X64688095Y-20343866D01*
X64688095Y-20343866D02*
X64640476Y-20248628D01*
X64640476Y-20248628D02*
X64640476Y-20201009D01*
X64640476Y-20201009D02*
X64688095Y-20105771D01*
X64688095Y-20105771D02*
X64783333Y-20058152D01*
X64783333Y-20058152D02*
X64926190Y-20058152D01*
X64926190Y-20058152D02*
X65021428Y-20105771D01*
X66021428Y-20724819D02*
X65450000Y-20724819D01*
X65735714Y-20724819D02*
X65735714Y-19724819D01*
X65735714Y-19724819D02*
X65640476Y-19867676D01*
X65640476Y-19867676D02*
X65545238Y-19962914D01*
X65545238Y-19962914D02*
X65450000Y-20010533D01*
X60113152Y-40811190D02*
X61113152Y-40811190D01*
X60160771Y-40811190D02*
X60113152Y-40715952D01*
X60113152Y-40715952D02*
X60113152Y-40525476D01*
X60113152Y-40525476D02*
X60160771Y-40430238D01*
X60160771Y-40430238D02*
X60208390Y-40382619D01*
X60208390Y-40382619D02*
X60303628Y-40335000D01*
X60303628Y-40335000D02*
X60589342Y-40335000D01*
X60589342Y-40335000D02*
X60684580Y-40382619D01*
X60684580Y-40382619D02*
X60732200Y-40430238D01*
X60732200Y-40430238D02*
X60779819Y-40525476D01*
X60779819Y-40525476D02*
X60779819Y-40715952D01*
X60779819Y-40715952D02*
X60732200Y-40811190D01*
X60779819Y-39763571D02*
X60732200Y-39858809D01*
X60732200Y-39858809D02*
X60684580Y-39906428D01*
X60684580Y-39906428D02*
X60589342Y-39954047D01*
X60589342Y-39954047D02*
X60303628Y-39954047D01*
X60303628Y-39954047D02*
X60208390Y-39906428D01*
X60208390Y-39906428D02*
X60160771Y-39858809D01*
X60160771Y-39858809D02*
X60113152Y-39763571D01*
X60113152Y-39763571D02*
X60113152Y-39620714D01*
X60113152Y-39620714D02*
X60160771Y-39525476D01*
X60160771Y-39525476D02*
X60208390Y-39477857D01*
X60208390Y-39477857D02*
X60303628Y-39430238D01*
X60303628Y-39430238D02*
X60589342Y-39430238D01*
X60589342Y-39430238D02*
X60684580Y-39477857D01*
X60684580Y-39477857D02*
X60732200Y-39525476D01*
X60732200Y-39525476D02*
X60779819Y-39620714D01*
X60779819Y-39620714D02*
X60779819Y-39763571D01*
X60113152Y-39096904D02*
X60779819Y-38906428D01*
X60779819Y-38906428D02*
X60303628Y-38715952D01*
X60303628Y-38715952D02*
X60779819Y-38525476D01*
X60779819Y-38525476D02*
X60113152Y-38335000D01*
X60732200Y-37573095D02*
X60779819Y-37668333D01*
X60779819Y-37668333D02*
X60779819Y-37858809D01*
X60779819Y-37858809D02*
X60732200Y-37954047D01*
X60732200Y-37954047D02*
X60636961Y-38001666D01*
X60636961Y-38001666D02*
X60256009Y-38001666D01*
X60256009Y-38001666D02*
X60160771Y-37954047D01*
X60160771Y-37954047D02*
X60113152Y-37858809D01*
X60113152Y-37858809D02*
X60113152Y-37668333D01*
X60113152Y-37668333D02*
X60160771Y-37573095D01*
X60160771Y-37573095D02*
X60256009Y-37525476D01*
X60256009Y-37525476D02*
X60351247Y-37525476D01*
X60351247Y-37525476D02*
X60446485Y-38001666D01*
X60779819Y-37096904D02*
X60113152Y-37096904D01*
X60303628Y-37096904D02*
X60208390Y-37049285D01*
X60208390Y-37049285D02*
X60160771Y-37001666D01*
X60160771Y-37001666D02*
X60113152Y-36906428D01*
X60113152Y-36906428D02*
X60113152Y-36811190D01*
X60875057Y-36715952D02*
X60875057Y-35954047D01*
X60779819Y-35573094D02*
X60732200Y-35668332D01*
X60732200Y-35668332D02*
X60684580Y-35715951D01*
X60684580Y-35715951D02*
X60589342Y-35763570D01*
X60589342Y-35763570D02*
X60303628Y-35763570D01*
X60303628Y-35763570D02*
X60208390Y-35715951D01*
X60208390Y-35715951D02*
X60160771Y-35668332D01*
X60160771Y-35668332D02*
X60113152Y-35573094D01*
X60113152Y-35573094D02*
X60113152Y-35430237D01*
X60113152Y-35430237D02*
X60160771Y-35334999D01*
X60160771Y-35334999D02*
X60208390Y-35287380D01*
X60208390Y-35287380D02*
X60303628Y-35239761D01*
X60303628Y-35239761D02*
X60589342Y-35239761D01*
X60589342Y-35239761D02*
X60684580Y-35287380D01*
X60684580Y-35287380D02*
X60732200Y-35334999D01*
X60732200Y-35334999D02*
X60779819Y-35430237D01*
X60779819Y-35430237D02*
X60779819Y-35573094D01*
X60113152Y-34382618D02*
X60779819Y-34382618D01*
X60113152Y-34811189D02*
X60636961Y-34811189D01*
X60636961Y-34811189D02*
X60732200Y-34763570D01*
X60732200Y-34763570D02*
X60779819Y-34668332D01*
X60779819Y-34668332D02*
X60779819Y-34525475D01*
X60779819Y-34525475D02*
X60732200Y-34430237D01*
X60732200Y-34430237D02*
X60684580Y-34382618D01*
X60113152Y-34049284D02*
X60113152Y-33668332D01*
X59779819Y-33906427D02*
X60636961Y-33906427D01*
X60636961Y-33906427D02*
X60732200Y-33858808D01*
X60732200Y-33858808D02*
X60779819Y-33763570D01*
X60779819Y-33763570D02*
X60779819Y-33668332D01*
X60779819Y-32811189D02*
X60779819Y-33382617D01*
X60779819Y-33096903D02*
X59779819Y-33096903D01*
X59779819Y-33096903D02*
X59922676Y-33192141D01*
X59922676Y-33192141D02*
X60017914Y-33287379D01*
X60017914Y-33287379D02*
X60065533Y-33382617D01*
X109984166Y-74522319D02*
X109984166Y-75236604D01*
X109984166Y-75236604D02*
X109936547Y-75379461D01*
X109936547Y-75379461D02*
X109841309Y-75474700D01*
X109841309Y-75474700D02*
X109698452Y-75522319D01*
X109698452Y-75522319D02*
X109603214Y-75522319D01*
X110984166Y-75522319D02*
X110412738Y-75522319D01*
X110698452Y-75522319D02*
X110698452Y-74522319D01*
X110698452Y-74522319D02*
X110603214Y-74665176D01*
X110603214Y-74665176D02*
X110507976Y-74760414D01*
X110507976Y-74760414D02*
X110412738Y-74808033D01*
D10*
X88515237Y-29277419D02*
X88039047Y-29277419D01*
X88039047Y-29277419D02*
X88039047Y-28277419D01*
X88991428Y-29277419D02*
X88896190Y-29229800D01*
X88896190Y-29229800D02*
X88848571Y-29182180D01*
X88848571Y-29182180D02*
X88800952Y-29086942D01*
X88800952Y-29086942D02*
X88800952Y-28801228D01*
X88800952Y-28801228D02*
X88848571Y-28705990D01*
X88848571Y-28705990D02*
X88896190Y-28658371D01*
X88896190Y-28658371D02*
X88991428Y-28610752D01*
X88991428Y-28610752D02*
X89134285Y-28610752D01*
X89134285Y-28610752D02*
X89229523Y-28658371D01*
X89229523Y-28658371D02*
X89277142Y-28705990D01*
X89277142Y-28705990D02*
X89324761Y-28801228D01*
X89324761Y-28801228D02*
X89324761Y-29086942D01*
X89324761Y-29086942D02*
X89277142Y-29182180D01*
X89277142Y-29182180D02*
X89229523Y-29229800D01*
X89229523Y-29229800D02*
X89134285Y-29277419D01*
X89134285Y-29277419D02*
X88991428Y-29277419D01*
X90324761Y-29277419D02*
X89991428Y-28801228D01*
X89753333Y-29277419D02*
X89753333Y-28277419D01*
X89753333Y-28277419D02*
X90134285Y-28277419D01*
X90134285Y-28277419D02*
X90229523Y-28325038D01*
X90229523Y-28325038D02*
X90277142Y-28372657D01*
X90277142Y-28372657D02*
X90324761Y-28467895D01*
X90324761Y-28467895D02*
X90324761Y-28610752D01*
X90324761Y-28610752D02*
X90277142Y-28705990D01*
X90277142Y-28705990D02*
X90229523Y-28753609D01*
X90229523Y-28753609D02*
X90134285Y-28801228D01*
X90134285Y-28801228D02*
X89753333Y-28801228D01*
X91181904Y-29277419D02*
X91181904Y-28753609D01*
X91181904Y-28753609D02*
X91134285Y-28658371D01*
X91134285Y-28658371D02*
X91039047Y-28610752D01*
X91039047Y-28610752D02*
X90848571Y-28610752D01*
X90848571Y-28610752D02*
X90753333Y-28658371D01*
X91181904Y-29229800D02*
X91086666Y-29277419D01*
X91086666Y-29277419D02*
X90848571Y-29277419D01*
X90848571Y-29277419D02*
X90753333Y-29229800D01*
X90753333Y-29229800D02*
X90705714Y-29134561D01*
X90705714Y-29134561D02*
X90705714Y-29039323D01*
X90705714Y-29039323D02*
X90753333Y-28944085D01*
X90753333Y-28944085D02*
X90848571Y-28896466D01*
X90848571Y-28896466D02*
X91086666Y-28896466D01*
X91086666Y-28896466D02*
X91181904Y-28848847D01*
X91658095Y-28896466D02*
X92420000Y-28896466D01*
X92896190Y-29277419D02*
X92896190Y-28610752D01*
X92896190Y-28705990D02*
X92943809Y-28658371D01*
X92943809Y-28658371D02*
X93039047Y-28610752D01*
X93039047Y-28610752D02*
X93181904Y-28610752D01*
X93181904Y-28610752D02*
X93277142Y-28658371D01*
X93277142Y-28658371D02*
X93324761Y-28753609D01*
X93324761Y-28753609D02*
X93324761Y-29277419D01*
X93324761Y-28753609D02*
X93372380Y-28658371D01*
X93372380Y-28658371D02*
X93467618Y-28610752D01*
X93467618Y-28610752D02*
X93610475Y-28610752D01*
X93610475Y-28610752D02*
X93705714Y-28658371D01*
X93705714Y-28658371D02*
X93753333Y-28753609D01*
X93753333Y-28753609D02*
X93753333Y-29277419D01*
X94372380Y-29277419D02*
X94277142Y-29229800D01*
X94277142Y-29229800D02*
X94229523Y-29182180D01*
X94229523Y-29182180D02*
X94181904Y-29086942D01*
X94181904Y-29086942D02*
X94181904Y-28801228D01*
X94181904Y-28801228D02*
X94229523Y-28705990D01*
X94229523Y-28705990D02*
X94277142Y-28658371D01*
X94277142Y-28658371D02*
X94372380Y-28610752D01*
X94372380Y-28610752D02*
X94515237Y-28610752D01*
X94515237Y-28610752D02*
X94610475Y-28658371D01*
X94610475Y-28658371D02*
X94658094Y-28705990D01*
X94658094Y-28705990D02*
X94705713Y-28801228D01*
X94705713Y-28801228D02*
X94705713Y-29086942D01*
X94705713Y-29086942D02*
X94658094Y-29182180D01*
X94658094Y-29182180D02*
X94610475Y-29229800D01*
X94610475Y-29229800D02*
X94515237Y-29277419D01*
X94515237Y-29277419D02*
X94372380Y-29277419D01*
X95562856Y-29277419D02*
X95562856Y-28277419D01*
X95562856Y-29229800D02*
X95467618Y-29277419D01*
X95467618Y-29277419D02*
X95277142Y-29277419D01*
X95277142Y-29277419D02*
X95181904Y-29229800D01*
X95181904Y-29229800D02*
X95134285Y-29182180D01*
X95134285Y-29182180D02*
X95086666Y-29086942D01*
X95086666Y-29086942D02*
X95086666Y-28801228D01*
X95086666Y-28801228D02*
X95134285Y-28705990D01*
X95134285Y-28705990D02*
X95181904Y-28658371D01*
X95181904Y-28658371D02*
X95277142Y-28610752D01*
X95277142Y-28610752D02*
X95467618Y-28610752D01*
X95467618Y-28610752D02*
X95562856Y-28658371D01*
X96467618Y-28610752D02*
X96467618Y-29277419D01*
X96039047Y-28610752D02*
X96039047Y-29134561D01*
X96039047Y-29134561D02*
X96086666Y-29229800D01*
X96086666Y-29229800D02*
X96181904Y-29277419D01*
X96181904Y-29277419D02*
X96324761Y-29277419D01*
X96324761Y-29277419D02*
X96419999Y-29229800D01*
X96419999Y-29229800D02*
X96467618Y-29182180D01*
X97086666Y-29277419D02*
X96991428Y-29229800D01*
X96991428Y-29229800D02*
X96943809Y-29134561D01*
X96943809Y-29134561D02*
X96943809Y-28277419D01*
X97848571Y-29229800D02*
X97753333Y-29277419D01*
X97753333Y-29277419D02*
X97562857Y-29277419D01*
X97562857Y-29277419D02*
X97467619Y-29229800D01*
X97467619Y-29229800D02*
X97420000Y-29134561D01*
X97420000Y-29134561D02*
X97420000Y-28753609D01*
X97420000Y-28753609D02*
X97467619Y-28658371D01*
X97467619Y-28658371D02*
X97562857Y-28610752D01*
X97562857Y-28610752D02*
X97753333Y-28610752D01*
X97753333Y-28610752D02*
X97848571Y-28658371D01*
X97848571Y-28658371D02*
X97896190Y-28753609D01*
X97896190Y-28753609D02*
X97896190Y-28848847D01*
X97896190Y-28848847D02*
X97420000Y-28944085D01*
X98848571Y-29277419D02*
X98277143Y-29277419D01*
X98562857Y-29277419D02*
X98562857Y-28277419D01*
X98562857Y-28277419D02*
X98467619Y-28420276D01*
X98467619Y-28420276D02*
X98372381Y-28515514D01*
X98372381Y-28515514D02*
X98277143Y-28563133D01*
D11*
X48590952Y-106149104D02*
X49067142Y-106149104D01*
X48495714Y-106434819D02*
X48829047Y-105434819D01*
X48829047Y-105434819D02*
X49162380Y-106434819D01*
X50067142Y-106339580D02*
X50019523Y-106387200D01*
X50019523Y-106387200D02*
X49876666Y-106434819D01*
X49876666Y-106434819D02*
X49781428Y-106434819D01*
X49781428Y-106434819D02*
X49638571Y-106387200D01*
X49638571Y-106387200D02*
X49543333Y-106291961D01*
X49543333Y-106291961D02*
X49495714Y-106196723D01*
X49495714Y-106196723D02*
X49448095Y-106006247D01*
X49448095Y-106006247D02*
X49448095Y-105863390D01*
X49448095Y-105863390D02*
X49495714Y-105672914D01*
X49495714Y-105672914D02*
X49543333Y-105577676D01*
X49543333Y-105577676D02*
X49638571Y-105482438D01*
X49638571Y-105482438D02*
X49781428Y-105434819D01*
X49781428Y-105434819D02*
X49876666Y-105434819D01*
X49876666Y-105434819D02*
X50019523Y-105482438D01*
X50019523Y-105482438D02*
X50067142Y-105530057D01*
X50448095Y-105530057D02*
X50495714Y-105482438D01*
X50495714Y-105482438D02*
X50590952Y-105434819D01*
X50590952Y-105434819D02*
X50829047Y-105434819D01*
X50829047Y-105434819D02*
X50924285Y-105482438D01*
X50924285Y-105482438D02*
X50971904Y-105530057D01*
X50971904Y-105530057D02*
X51019523Y-105625295D01*
X51019523Y-105625295D02*
X51019523Y-105720533D01*
X51019523Y-105720533D02*
X50971904Y-105863390D01*
X50971904Y-105863390D02*
X50400476Y-106434819D01*
X50400476Y-106434819D02*
X51019523Y-106434819D01*
X51400476Y-105530057D02*
X51448095Y-105482438D01*
X51448095Y-105482438D02*
X51543333Y-105434819D01*
X51543333Y-105434819D02*
X51781428Y-105434819D01*
X51781428Y-105434819D02*
X51876666Y-105482438D01*
X51876666Y-105482438D02*
X51924285Y-105530057D01*
X51924285Y-105530057D02*
X51971904Y-105625295D01*
X51971904Y-105625295D02*
X51971904Y-105720533D01*
X51971904Y-105720533D02*
X51924285Y-105863390D01*
X51924285Y-105863390D02*
X51352857Y-106434819D01*
X51352857Y-106434819D02*
X51971904Y-106434819D01*
X52590952Y-105434819D02*
X52686190Y-105434819D01*
X52686190Y-105434819D02*
X52781428Y-105482438D01*
X52781428Y-105482438D02*
X52829047Y-105530057D01*
X52829047Y-105530057D02*
X52876666Y-105625295D01*
X52876666Y-105625295D02*
X52924285Y-105815771D01*
X52924285Y-105815771D02*
X52924285Y-106053866D01*
X52924285Y-106053866D02*
X52876666Y-106244342D01*
X52876666Y-106244342D02*
X52829047Y-106339580D01*
X52829047Y-106339580D02*
X52781428Y-106387200D01*
X52781428Y-106387200D02*
X52686190Y-106434819D01*
X52686190Y-106434819D02*
X52590952Y-106434819D01*
X52590952Y-106434819D02*
X52495714Y-106387200D01*
X52495714Y-106387200D02*
X52448095Y-106339580D01*
X52448095Y-106339580D02*
X52400476Y-106244342D01*
X52400476Y-106244342D02*
X52352857Y-106053866D01*
X52352857Y-106053866D02*
X52352857Y-105815771D01*
X52352857Y-105815771D02*
X52400476Y-105625295D01*
X52400476Y-105625295D02*
X52448095Y-105530057D01*
X52448095Y-105530057D02*
X52495714Y-105482438D01*
X52495714Y-105482438D02*
X52590952Y-105434819D01*
X53210000Y-105434819D02*
X53543333Y-106434819D01*
X53543333Y-106434819D02*
X53876666Y-105434819D01*
X53971905Y-106530057D02*
X54733809Y-106530057D01*
X54971905Y-106434819D02*
X54971905Y-105768152D01*
X54971905Y-105434819D02*
X54924286Y-105482438D01*
X54924286Y-105482438D02*
X54971905Y-105530057D01*
X54971905Y-105530057D02*
X55019524Y-105482438D01*
X55019524Y-105482438D02*
X54971905Y-105434819D01*
X54971905Y-105434819D02*
X54971905Y-105530057D01*
X55448095Y-105768152D02*
X55448095Y-106434819D01*
X55448095Y-105863390D02*
X55495714Y-105815771D01*
X55495714Y-105815771D02*
X55590952Y-105768152D01*
X55590952Y-105768152D02*
X55733809Y-105768152D01*
X55733809Y-105768152D02*
X55829047Y-105815771D01*
X55829047Y-105815771D02*
X55876666Y-105911009D01*
X55876666Y-105911009D02*
X55876666Y-106434819D01*
X56495714Y-106434819D02*
X56400476Y-106387200D01*
X56400476Y-106387200D02*
X56352857Y-106291961D01*
X56352857Y-106291961D02*
X56352857Y-105434819D01*
X57257619Y-106387200D02*
X57162381Y-106434819D01*
X57162381Y-106434819D02*
X56971905Y-106434819D01*
X56971905Y-106434819D02*
X56876667Y-106387200D01*
X56876667Y-106387200D02*
X56829048Y-106291961D01*
X56829048Y-106291961D02*
X56829048Y-105911009D01*
X56829048Y-105911009D02*
X56876667Y-105815771D01*
X56876667Y-105815771D02*
X56971905Y-105768152D01*
X56971905Y-105768152D02*
X57162381Y-105768152D01*
X57162381Y-105768152D02*
X57257619Y-105815771D01*
X57257619Y-105815771D02*
X57305238Y-105911009D01*
X57305238Y-105911009D02*
X57305238Y-106006247D01*
X57305238Y-106006247D02*
X56829048Y-106101485D01*
X57590953Y-105768152D02*
X57971905Y-105768152D01*
X57733810Y-105434819D02*
X57733810Y-106291961D01*
X57733810Y-106291961D02*
X57781429Y-106387200D01*
X57781429Y-106387200D02*
X57876667Y-106434819D01*
X57876667Y-106434819D02*
X57971905Y-106434819D01*
X58829048Y-106434819D02*
X58257620Y-106434819D01*
X58543334Y-106434819D02*
X58543334Y-105434819D01*
X58543334Y-105434819D02*
X58448096Y-105577676D01*
X58448096Y-105577676D02*
X58352858Y-105672914D01*
X58352858Y-105672914D02*
X58257620Y-105720533D01*
X39759819Y-26376904D02*
X40569342Y-26376904D01*
X40569342Y-26376904D02*
X40664580Y-26329285D01*
X40664580Y-26329285D02*
X40712200Y-26281666D01*
X40712200Y-26281666D02*
X40759819Y-26186428D01*
X40759819Y-26186428D02*
X40759819Y-25995952D01*
X40759819Y-25995952D02*
X40712200Y-25900714D01*
X40712200Y-25900714D02*
X40664580Y-25853095D01*
X40664580Y-25853095D02*
X40569342Y-25805476D01*
X40569342Y-25805476D02*
X39759819Y-25805476D01*
X39855057Y-25376904D02*
X39807438Y-25329285D01*
X39807438Y-25329285D02*
X39759819Y-25234047D01*
X39759819Y-25234047D02*
X39759819Y-24995952D01*
X39759819Y-24995952D02*
X39807438Y-24900714D01*
X39807438Y-24900714D02*
X39855057Y-24853095D01*
X39855057Y-24853095D02*
X39950295Y-24805476D01*
X39950295Y-24805476D02*
X40045533Y-24805476D01*
X40045533Y-24805476D02*
X40188390Y-24853095D01*
X40188390Y-24853095D02*
X40759819Y-25424523D01*
X40759819Y-25424523D02*
X40759819Y-24805476D01*
X83762855Y-77674819D02*
X83286665Y-77674819D01*
X83286665Y-77674819D02*
X83286665Y-76674819D01*
X84096189Y-77151009D02*
X84429522Y-77151009D01*
X84572379Y-77674819D02*
X84096189Y-77674819D01*
X84096189Y-77674819D02*
X84096189Y-76674819D01*
X84096189Y-76674819D02*
X84572379Y-76674819D01*
X85000951Y-77674819D02*
X85000951Y-76674819D01*
X85000951Y-76674819D02*
X85239046Y-76674819D01*
X85239046Y-76674819D02*
X85381903Y-76722438D01*
X85381903Y-76722438D02*
X85477141Y-76817676D01*
X85477141Y-76817676D02*
X85524760Y-76912914D01*
X85524760Y-76912914D02*
X85572379Y-77103390D01*
X85572379Y-77103390D02*
X85572379Y-77246247D01*
X85572379Y-77246247D02*
X85524760Y-77436723D01*
X85524760Y-77436723D02*
X85477141Y-77531961D01*
X85477141Y-77531961D02*
X85381903Y-77627200D01*
X85381903Y-77627200D02*
X85239046Y-77674819D01*
X85239046Y-77674819D02*
X85000951Y-77674819D01*
X85762856Y-77770057D02*
X86524760Y-77770057D01*
X86619999Y-77008152D02*
X87000951Y-77008152D01*
X86762856Y-76674819D02*
X86762856Y-77531961D01*
X86762856Y-77531961D02*
X86810475Y-77627200D01*
X86810475Y-77627200D02*
X86905713Y-77674819D01*
X86905713Y-77674819D02*
X87000951Y-77674819D01*
X87334285Y-77674819D02*
X87334285Y-77008152D01*
X87334285Y-77198628D02*
X87381904Y-77103390D01*
X87381904Y-77103390D02*
X87429523Y-77055771D01*
X87429523Y-77055771D02*
X87524761Y-77008152D01*
X87524761Y-77008152D02*
X87619999Y-77008152D01*
X88381904Y-77674819D02*
X88381904Y-77151009D01*
X88381904Y-77151009D02*
X88334285Y-77055771D01*
X88334285Y-77055771D02*
X88239047Y-77008152D01*
X88239047Y-77008152D02*
X88048571Y-77008152D01*
X88048571Y-77008152D02*
X87953333Y-77055771D01*
X88381904Y-77627200D02*
X88286666Y-77674819D01*
X88286666Y-77674819D02*
X88048571Y-77674819D01*
X88048571Y-77674819D02*
X87953333Y-77627200D01*
X87953333Y-77627200D02*
X87905714Y-77531961D01*
X87905714Y-77531961D02*
X87905714Y-77436723D01*
X87905714Y-77436723D02*
X87953333Y-77341485D01*
X87953333Y-77341485D02*
X88048571Y-77293866D01*
X88048571Y-77293866D02*
X88286666Y-77293866D01*
X88286666Y-77293866D02*
X88381904Y-77246247D01*
X88715238Y-77008152D02*
X89096190Y-77008152D01*
X88858095Y-77674819D02*
X88858095Y-76817676D01*
X88858095Y-76817676D02*
X88905714Y-76722438D01*
X88905714Y-76722438D02*
X89000952Y-76674819D01*
X89000952Y-76674819D02*
X89096190Y-76674819D01*
X89286667Y-77008152D02*
X89667619Y-77008152D01*
X89429524Y-77674819D02*
X89429524Y-76817676D01*
X89429524Y-76817676D02*
X89477143Y-76722438D01*
X89477143Y-76722438D02*
X89572381Y-76674819D01*
X89572381Y-76674819D02*
X89667619Y-76674819D01*
X90000953Y-77674819D02*
X90000953Y-77008152D01*
X90000953Y-76674819D02*
X89953334Y-76722438D01*
X89953334Y-76722438D02*
X90000953Y-76770057D01*
X90000953Y-76770057D02*
X90048572Y-76722438D01*
X90048572Y-76722438D02*
X90000953Y-76674819D01*
X90000953Y-76674819D02*
X90000953Y-76770057D01*
X90905714Y-77627200D02*
X90810476Y-77674819D01*
X90810476Y-77674819D02*
X90620000Y-77674819D01*
X90620000Y-77674819D02*
X90524762Y-77627200D01*
X90524762Y-77627200D02*
X90477143Y-77579580D01*
X90477143Y-77579580D02*
X90429524Y-77484342D01*
X90429524Y-77484342D02*
X90429524Y-77198628D01*
X90429524Y-77198628D02*
X90477143Y-77103390D01*
X90477143Y-77103390D02*
X90524762Y-77055771D01*
X90524762Y-77055771D02*
X90620000Y-77008152D01*
X90620000Y-77008152D02*
X90810476Y-77008152D01*
X90810476Y-77008152D02*
X90905714Y-77055771D01*
X91096191Y-77770057D02*
X91858095Y-77770057D01*
X92239048Y-77674819D02*
X92143810Y-77627200D01*
X92143810Y-77627200D02*
X92096191Y-77531961D01*
X92096191Y-77531961D02*
X92096191Y-76674819D01*
X92620001Y-77674819D02*
X92620001Y-77008152D01*
X92620001Y-76674819D02*
X92572382Y-76722438D01*
X92572382Y-76722438D02*
X92620001Y-76770057D01*
X92620001Y-76770057D02*
X92667620Y-76722438D01*
X92667620Y-76722438D02*
X92620001Y-76674819D01*
X92620001Y-76674819D02*
X92620001Y-76770057D01*
X93524762Y-77008152D02*
X93524762Y-77817676D01*
X93524762Y-77817676D02*
X93477143Y-77912914D01*
X93477143Y-77912914D02*
X93429524Y-77960533D01*
X93429524Y-77960533D02*
X93334286Y-78008152D01*
X93334286Y-78008152D02*
X93191429Y-78008152D01*
X93191429Y-78008152D02*
X93096191Y-77960533D01*
X93524762Y-77627200D02*
X93429524Y-77674819D01*
X93429524Y-77674819D02*
X93239048Y-77674819D01*
X93239048Y-77674819D02*
X93143810Y-77627200D01*
X93143810Y-77627200D02*
X93096191Y-77579580D01*
X93096191Y-77579580D02*
X93048572Y-77484342D01*
X93048572Y-77484342D02*
X93048572Y-77198628D01*
X93048572Y-77198628D02*
X93096191Y-77103390D01*
X93096191Y-77103390D02*
X93143810Y-77055771D01*
X93143810Y-77055771D02*
X93239048Y-77008152D01*
X93239048Y-77008152D02*
X93429524Y-77008152D01*
X93429524Y-77008152D02*
X93524762Y-77055771D01*
X94000953Y-77674819D02*
X94000953Y-76674819D01*
X94429524Y-77674819D02*
X94429524Y-77151009D01*
X94429524Y-77151009D02*
X94381905Y-77055771D01*
X94381905Y-77055771D02*
X94286667Y-77008152D01*
X94286667Y-77008152D02*
X94143810Y-77008152D01*
X94143810Y-77008152D02*
X94048572Y-77055771D01*
X94048572Y-77055771D02*
X94000953Y-77103390D01*
X94762858Y-77008152D02*
X95143810Y-77008152D01*
X94905715Y-76674819D02*
X94905715Y-77531961D01*
X94905715Y-77531961D02*
X94953334Y-77627200D01*
X94953334Y-77627200D02*
X95048572Y-77674819D01*
X95048572Y-77674819D02*
X95143810Y-77674819D01*
X96000953Y-77674819D02*
X95429525Y-77674819D01*
X95715239Y-77674819D02*
X95715239Y-76674819D01*
X95715239Y-76674819D02*
X95620001Y-76817676D01*
X95620001Y-76817676D02*
X95524763Y-76912914D01*
X95524763Y-76912914D02*
X95429525Y-76960533D01*
X33407319Y-99261785D02*
X32407319Y-99261785D01*
X32407319Y-99261785D02*
X32407319Y-98880833D01*
X32407319Y-98880833D02*
X32454938Y-98785595D01*
X32454938Y-98785595D02*
X32502557Y-98737976D01*
X32502557Y-98737976D02*
X32597795Y-98690357D01*
X32597795Y-98690357D02*
X32740652Y-98690357D01*
X32740652Y-98690357D02*
X32835890Y-98737976D01*
X32835890Y-98737976D02*
X32883509Y-98785595D01*
X32883509Y-98785595D02*
X32931128Y-98880833D01*
X32931128Y-98880833D02*
X32931128Y-99261785D01*
X33359700Y-98309404D02*
X33407319Y-98166547D01*
X33407319Y-98166547D02*
X33407319Y-97928452D01*
X33407319Y-97928452D02*
X33359700Y-97833214D01*
X33359700Y-97833214D02*
X33312080Y-97785595D01*
X33312080Y-97785595D02*
X33216842Y-97737976D01*
X33216842Y-97737976D02*
X33121604Y-97737976D01*
X33121604Y-97737976D02*
X33026366Y-97785595D01*
X33026366Y-97785595D02*
X32978747Y-97833214D01*
X32978747Y-97833214D02*
X32931128Y-97928452D01*
X32931128Y-97928452D02*
X32883509Y-98118928D01*
X32883509Y-98118928D02*
X32835890Y-98214166D01*
X32835890Y-98214166D02*
X32788271Y-98261785D01*
X32788271Y-98261785D02*
X32693033Y-98309404D01*
X32693033Y-98309404D02*
X32597795Y-98309404D01*
X32597795Y-98309404D02*
X32502557Y-98261785D01*
X32502557Y-98261785D02*
X32454938Y-98214166D01*
X32454938Y-98214166D02*
X32407319Y-98118928D01*
X32407319Y-98118928D02*
X32407319Y-97880833D01*
X32407319Y-97880833D02*
X32454938Y-97737976D01*
X33407319Y-96785595D02*
X33407319Y-97357023D01*
X33407319Y-97071309D02*
X32407319Y-97071309D01*
X32407319Y-97071309D02*
X32550176Y-97166547D01*
X32550176Y-97166547D02*
X32645414Y-97261785D01*
X32645414Y-97261785D02*
X32693033Y-97357023D01*
X61090951Y-106149104D02*
X61567141Y-106149104D01*
X60995713Y-106434819D02*
X61329046Y-105434819D01*
X61329046Y-105434819D02*
X61662379Y-106434819D01*
X62567141Y-106339580D02*
X62519522Y-106387200D01*
X62519522Y-106387200D02*
X62376665Y-106434819D01*
X62376665Y-106434819D02*
X62281427Y-106434819D01*
X62281427Y-106434819D02*
X62138570Y-106387200D01*
X62138570Y-106387200D02*
X62043332Y-106291961D01*
X62043332Y-106291961D02*
X61995713Y-106196723D01*
X61995713Y-106196723D02*
X61948094Y-106006247D01*
X61948094Y-106006247D02*
X61948094Y-105863390D01*
X61948094Y-105863390D02*
X61995713Y-105672914D01*
X61995713Y-105672914D02*
X62043332Y-105577676D01*
X62043332Y-105577676D02*
X62138570Y-105482438D01*
X62138570Y-105482438D02*
X62281427Y-105434819D01*
X62281427Y-105434819D02*
X62376665Y-105434819D01*
X62376665Y-105434819D02*
X62519522Y-105482438D01*
X62519522Y-105482438D02*
X62567141Y-105530057D01*
X62948094Y-105530057D02*
X62995713Y-105482438D01*
X62995713Y-105482438D02*
X63090951Y-105434819D01*
X63090951Y-105434819D02*
X63329046Y-105434819D01*
X63329046Y-105434819D02*
X63424284Y-105482438D01*
X63424284Y-105482438D02*
X63471903Y-105530057D01*
X63471903Y-105530057D02*
X63519522Y-105625295D01*
X63519522Y-105625295D02*
X63519522Y-105720533D01*
X63519522Y-105720533D02*
X63471903Y-105863390D01*
X63471903Y-105863390D02*
X62900475Y-106434819D01*
X62900475Y-106434819D02*
X63519522Y-106434819D01*
X63900475Y-105530057D02*
X63948094Y-105482438D01*
X63948094Y-105482438D02*
X64043332Y-105434819D01*
X64043332Y-105434819D02*
X64281427Y-105434819D01*
X64281427Y-105434819D02*
X64376665Y-105482438D01*
X64376665Y-105482438D02*
X64424284Y-105530057D01*
X64424284Y-105530057D02*
X64471903Y-105625295D01*
X64471903Y-105625295D02*
X64471903Y-105720533D01*
X64471903Y-105720533D02*
X64424284Y-105863390D01*
X64424284Y-105863390D02*
X63852856Y-106434819D01*
X63852856Y-106434819D02*
X64471903Y-106434819D01*
X65090951Y-105434819D02*
X65186189Y-105434819D01*
X65186189Y-105434819D02*
X65281427Y-105482438D01*
X65281427Y-105482438D02*
X65329046Y-105530057D01*
X65329046Y-105530057D02*
X65376665Y-105625295D01*
X65376665Y-105625295D02*
X65424284Y-105815771D01*
X65424284Y-105815771D02*
X65424284Y-106053866D01*
X65424284Y-106053866D02*
X65376665Y-106244342D01*
X65376665Y-106244342D02*
X65329046Y-106339580D01*
X65329046Y-106339580D02*
X65281427Y-106387200D01*
X65281427Y-106387200D02*
X65186189Y-106434819D01*
X65186189Y-106434819D02*
X65090951Y-106434819D01*
X65090951Y-106434819D02*
X64995713Y-106387200D01*
X64995713Y-106387200D02*
X64948094Y-106339580D01*
X64948094Y-106339580D02*
X64900475Y-106244342D01*
X64900475Y-106244342D02*
X64852856Y-106053866D01*
X64852856Y-106053866D02*
X64852856Y-105815771D01*
X64852856Y-105815771D02*
X64900475Y-105625295D01*
X64900475Y-105625295D02*
X64948094Y-105530057D01*
X64948094Y-105530057D02*
X64995713Y-105482438D01*
X64995713Y-105482438D02*
X65090951Y-105434819D01*
X65709999Y-105434819D02*
X66043332Y-106434819D01*
X66043332Y-106434819D02*
X66376665Y-105434819D01*
X66471904Y-106530057D02*
X67233808Y-106530057D01*
X67614761Y-106434819D02*
X67519523Y-106387200D01*
X67519523Y-106387200D02*
X67471904Y-106339580D01*
X67471904Y-106339580D02*
X67424285Y-106244342D01*
X67424285Y-106244342D02*
X67424285Y-105958628D01*
X67424285Y-105958628D02*
X67471904Y-105863390D01*
X67471904Y-105863390D02*
X67519523Y-105815771D01*
X67519523Y-105815771D02*
X67614761Y-105768152D01*
X67614761Y-105768152D02*
X67757618Y-105768152D01*
X67757618Y-105768152D02*
X67852856Y-105815771D01*
X67852856Y-105815771D02*
X67900475Y-105863390D01*
X67900475Y-105863390D02*
X67948094Y-105958628D01*
X67948094Y-105958628D02*
X67948094Y-106244342D01*
X67948094Y-106244342D02*
X67900475Y-106339580D01*
X67900475Y-106339580D02*
X67852856Y-106387200D01*
X67852856Y-106387200D02*
X67757618Y-106434819D01*
X67757618Y-106434819D02*
X67614761Y-106434819D01*
X68805237Y-105768152D02*
X68805237Y-106434819D01*
X68376666Y-105768152D02*
X68376666Y-106291961D01*
X68376666Y-106291961D02*
X68424285Y-106387200D01*
X68424285Y-106387200D02*
X68519523Y-106434819D01*
X68519523Y-106434819D02*
X68662380Y-106434819D01*
X68662380Y-106434819D02*
X68757618Y-106387200D01*
X68757618Y-106387200D02*
X68805237Y-106339580D01*
X69138571Y-105768152D02*
X69519523Y-105768152D01*
X69281428Y-105434819D02*
X69281428Y-106291961D01*
X69281428Y-106291961D02*
X69329047Y-106387200D01*
X69329047Y-106387200D02*
X69424285Y-106434819D01*
X69424285Y-106434819D02*
X69519523Y-106434819D01*
X69995714Y-106434819D02*
X69900476Y-106387200D01*
X69900476Y-106387200D02*
X69852857Y-106291961D01*
X69852857Y-106291961D02*
X69852857Y-105434819D01*
X70757619Y-106387200D02*
X70662381Y-106434819D01*
X70662381Y-106434819D02*
X70471905Y-106434819D01*
X70471905Y-106434819D02*
X70376667Y-106387200D01*
X70376667Y-106387200D02*
X70329048Y-106291961D01*
X70329048Y-106291961D02*
X70329048Y-105911009D01*
X70329048Y-105911009D02*
X70376667Y-105815771D01*
X70376667Y-105815771D02*
X70471905Y-105768152D01*
X70471905Y-105768152D02*
X70662381Y-105768152D01*
X70662381Y-105768152D02*
X70757619Y-105815771D01*
X70757619Y-105815771D02*
X70805238Y-105911009D01*
X70805238Y-105911009D02*
X70805238Y-106006247D01*
X70805238Y-106006247D02*
X70329048Y-106101485D01*
X71090953Y-105768152D02*
X71471905Y-105768152D01*
X71233810Y-105434819D02*
X71233810Y-106291961D01*
X71233810Y-106291961D02*
X71281429Y-106387200D01*
X71281429Y-106387200D02*
X71376667Y-106434819D01*
X71376667Y-106434819D02*
X71471905Y-106434819D01*
X72329048Y-106434819D02*
X71757620Y-106434819D01*
X72043334Y-106434819D02*
X72043334Y-105434819D01*
X72043334Y-105434819D02*
X71948096Y-105577676D01*
X71948096Y-105577676D02*
X71852858Y-105672914D01*
X71852858Y-105672914D02*
X71757620Y-105720533D01*
D10*
X84456666Y-89647419D02*
X84123333Y-89171228D01*
X83885238Y-89647419D02*
X83885238Y-88647419D01*
X83885238Y-88647419D02*
X84266190Y-88647419D01*
X84266190Y-88647419D02*
X84361428Y-88695038D01*
X84361428Y-88695038D02*
X84409047Y-88742657D01*
X84409047Y-88742657D02*
X84456666Y-88837895D01*
X84456666Y-88837895D02*
X84456666Y-88980752D01*
X84456666Y-88980752D02*
X84409047Y-89075990D01*
X84409047Y-89075990D02*
X84361428Y-89123609D01*
X84361428Y-89123609D02*
X84266190Y-89171228D01*
X84266190Y-89171228D02*
X83885238Y-89171228D01*
X84885238Y-89123609D02*
X85218571Y-89123609D01*
X85361428Y-89647419D02*
X84885238Y-89647419D01*
X84885238Y-89647419D02*
X84885238Y-88647419D01*
X84885238Y-88647419D02*
X85361428Y-88647419D01*
X86123333Y-89123609D02*
X85790000Y-89123609D01*
X85790000Y-89647419D02*
X85790000Y-88647419D01*
X85790000Y-88647419D02*
X86266190Y-88647419D01*
X86790000Y-88647419D02*
X86790000Y-88885514D01*
X86551905Y-88790276D02*
X86790000Y-88885514D01*
X86790000Y-88885514D02*
X87028095Y-88790276D01*
X86647143Y-89075990D02*
X86790000Y-88885514D01*
X86790000Y-88885514D02*
X86932857Y-89075990D01*
X87551905Y-88647419D02*
X87551905Y-88885514D01*
X87313810Y-88790276D02*
X87551905Y-88885514D01*
X87551905Y-88885514D02*
X87790000Y-88790276D01*
X87409048Y-89075990D02*
X87551905Y-88885514D01*
X87551905Y-88885514D02*
X87694762Y-89075990D01*
D11*
X73275713Y-77183152D02*
X73656665Y-77183152D01*
X73418570Y-76849819D02*
X73418570Y-77706961D01*
X73418570Y-77706961D02*
X73466189Y-77802200D01*
X73466189Y-77802200D02*
X73561427Y-77849819D01*
X73561427Y-77849819D02*
X73656665Y-77849819D01*
X74370951Y-77802200D02*
X74275713Y-77849819D01*
X74275713Y-77849819D02*
X74085237Y-77849819D01*
X74085237Y-77849819D02*
X73989999Y-77802200D01*
X73989999Y-77802200D02*
X73942380Y-77706961D01*
X73942380Y-77706961D02*
X73942380Y-77326009D01*
X73942380Y-77326009D02*
X73989999Y-77230771D01*
X73989999Y-77230771D02*
X74085237Y-77183152D01*
X74085237Y-77183152D02*
X74275713Y-77183152D01*
X74275713Y-77183152D02*
X74370951Y-77230771D01*
X74370951Y-77230771D02*
X74418570Y-77326009D01*
X74418570Y-77326009D02*
X74418570Y-77421247D01*
X74418570Y-77421247D02*
X73942380Y-77516485D01*
X74847142Y-77849819D02*
X74847142Y-77183152D01*
X74847142Y-77278390D02*
X74894761Y-77230771D01*
X74894761Y-77230771D02*
X74989999Y-77183152D01*
X74989999Y-77183152D02*
X75132856Y-77183152D01*
X75132856Y-77183152D02*
X75228094Y-77230771D01*
X75228094Y-77230771D02*
X75275713Y-77326009D01*
X75275713Y-77326009D02*
X75275713Y-77849819D01*
X75275713Y-77326009D02*
X75323332Y-77230771D01*
X75323332Y-77230771D02*
X75418570Y-77183152D01*
X75418570Y-77183152D02*
X75561427Y-77183152D01*
X75561427Y-77183152D02*
X75656666Y-77230771D01*
X75656666Y-77230771D02*
X75704285Y-77326009D01*
X75704285Y-77326009D02*
X75704285Y-77849819D01*
X76180475Y-77183152D02*
X76180475Y-78183152D01*
X76180475Y-77230771D02*
X76275713Y-77183152D01*
X76275713Y-77183152D02*
X76466189Y-77183152D01*
X76466189Y-77183152D02*
X76561427Y-77230771D01*
X76561427Y-77230771D02*
X76609046Y-77278390D01*
X76609046Y-77278390D02*
X76656665Y-77373628D01*
X76656665Y-77373628D02*
X76656665Y-77659342D01*
X76656665Y-77659342D02*
X76609046Y-77754580D01*
X76609046Y-77754580D02*
X76561427Y-77802200D01*
X76561427Y-77802200D02*
X76466189Y-77849819D01*
X76466189Y-77849819D02*
X76275713Y-77849819D01*
X76275713Y-77849819D02*
X76180475Y-77802200D01*
X77466189Y-77802200D02*
X77370951Y-77849819D01*
X77370951Y-77849819D02*
X77180475Y-77849819D01*
X77180475Y-77849819D02*
X77085237Y-77802200D01*
X77085237Y-77802200D02*
X77037618Y-77706961D01*
X77037618Y-77706961D02*
X77037618Y-77326009D01*
X77037618Y-77326009D02*
X77085237Y-77230771D01*
X77085237Y-77230771D02*
X77180475Y-77183152D01*
X77180475Y-77183152D02*
X77370951Y-77183152D01*
X77370951Y-77183152D02*
X77466189Y-77230771D01*
X77466189Y-77230771D02*
X77513808Y-77326009D01*
X77513808Y-77326009D02*
X77513808Y-77421247D01*
X77513808Y-77421247D02*
X77037618Y-77516485D01*
X77942380Y-77849819D02*
X77942380Y-77183152D01*
X77942380Y-77373628D02*
X77989999Y-77278390D01*
X77989999Y-77278390D02*
X78037618Y-77230771D01*
X78037618Y-77230771D02*
X78132856Y-77183152D01*
X78132856Y-77183152D02*
X78228094Y-77183152D01*
X78989999Y-77849819D02*
X78989999Y-77326009D01*
X78989999Y-77326009D02*
X78942380Y-77230771D01*
X78942380Y-77230771D02*
X78847142Y-77183152D01*
X78847142Y-77183152D02*
X78656666Y-77183152D01*
X78656666Y-77183152D02*
X78561428Y-77230771D01*
X78989999Y-77802200D02*
X78894761Y-77849819D01*
X78894761Y-77849819D02*
X78656666Y-77849819D01*
X78656666Y-77849819D02*
X78561428Y-77802200D01*
X78561428Y-77802200D02*
X78513809Y-77706961D01*
X78513809Y-77706961D02*
X78513809Y-77611723D01*
X78513809Y-77611723D02*
X78561428Y-77516485D01*
X78561428Y-77516485D02*
X78656666Y-77468866D01*
X78656666Y-77468866D02*
X78894761Y-77468866D01*
X78894761Y-77468866D02*
X78989999Y-77421247D01*
X79323333Y-77183152D02*
X79704285Y-77183152D01*
X79466190Y-76849819D02*
X79466190Y-77706961D01*
X79466190Y-77706961D02*
X79513809Y-77802200D01*
X79513809Y-77802200D02*
X79609047Y-77849819D01*
X79609047Y-77849819D02*
X79704285Y-77849819D01*
X80466190Y-77183152D02*
X80466190Y-77849819D01*
X80037619Y-77183152D02*
X80037619Y-77706961D01*
X80037619Y-77706961D02*
X80085238Y-77802200D01*
X80085238Y-77802200D02*
X80180476Y-77849819D01*
X80180476Y-77849819D02*
X80323333Y-77849819D01*
X80323333Y-77849819D02*
X80418571Y-77802200D01*
X80418571Y-77802200D02*
X80466190Y-77754580D01*
X80942381Y-77849819D02*
X80942381Y-77183152D01*
X80942381Y-77373628D02*
X80990000Y-77278390D01*
X80990000Y-77278390D02*
X81037619Y-77230771D01*
X81037619Y-77230771D02*
X81132857Y-77183152D01*
X81132857Y-77183152D02*
X81228095Y-77183152D01*
X81942381Y-77802200D02*
X81847143Y-77849819D01*
X81847143Y-77849819D02*
X81656667Y-77849819D01*
X81656667Y-77849819D02*
X81561429Y-77802200D01*
X81561429Y-77802200D02*
X81513810Y-77706961D01*
X81513810Y-77706961D02*
X81513810Y-77326009D01*
X81513810Y-77326009D02*
X81561429Y-77230771D01*
X81561429Y-77230771D02*
X81656667Y-77183152D01*
X81656667Y-77183152D02*
X81847143Y-77183152D01*
X81847143Y-77183152D02*
X81942381Y-77230771D01*
X81942381Y-77230771D02*
X81990000Y-77326009D01*
X81990000Y-77326009D02*
X81990000Y-77421247D01*
X81990000Y-77421247D02*
X81513810Y-77516485D01*
X82180477Y-77945057D02*
X82942381Y-77945057D01*
X83132858Y-77802200D02*
X83228096Y-77849819D01*
X83228096Y-77849819D02*
X83418572Y-77849819D01*
X83418572Y-77849819D02*
X83513810Y-77802200D01*
X83513810Y-77802200D02*
X83561429Y-77706961D01*
X83561429Y-77706961D02*
X83561429Y-77659342D01*
X83561429Y-77659342D02*
X83513810Y-77564104D01*
X83513810Y-77564104D02*
X83418572Y-77516485D01*
X83418572Y-77516485D02*
X83275715Y-77516485D01*
X83275715Y-77516485D02*
X83180477Y-77468866D01*
X83180477Y-77468866D02*
X83132858Y-77373628D01*
X83132858Y-77373628D02*
X83132858Y-77326009D01*
X83132858Y-77326009D02*
X83180477Y-77230771D01*
X83180477Y-77230771D02*
X83275715Y-77183152D01*
X83275715Y-77183152D02*
X83418572Y-77183152D01*
X83418572Y-77183152D02*
X83513810Y-77230771D01*
X84370953Y-77802200D02*
X84275715Y-77849819D01*
X84275715Y-77849819D02*
X84085239Y-77849819D01*
X84085239Y-77849819D02*
X83990001Y-77802200D01*
X83990001Y-77802200D02*
X83942382Y-77706961D01*
X83942382Y-77706961D02*
X83942382Y-77326009D01*
X83942382Y-77326009D02*
X83990001Y-77230771D01*
X83990001Y-77230771D02*
X84085239Y-77183152D01*
X84085239Y-77183152D02*
X84275715Y-77183152D01*
X84275715Y-77183152D02*
X84370953Y-77230771D01*
X84370953Y-77230771D02*
X84418572Y-77326009D01*
X84418572Y-77326009D02*
X84418572Y-77421247D01*
X84418572Y-77421247D02*
X83942382Y-77516485D01*
X84847144Y-77183152D02*
X84847144Y-77849819D01*
X84847144Y-77278390D02*
X84894763Y-77230771D01*
X84894763Y-77230771D02*
X84990001Y-77183152D01*
X84990001Y-77183152D02*
X85132858Y-77183152D01*
X85132858Y-77183152D02*
X85228096Y-77230771D01*
X85228096Y-77230771D02*
X85275715Y-77326009D01*
X85275715Y-77326009D02*
X85275715Y-77849819D01*
X85704287Y-77802200D02*
X85799525Y-77849819D01*
X85799525Y-77849819D02*
X85990001Y-77849819D01*
X85990001Y-77849819D02*
X86085239Y-77802200D01*
X86085239Y-77802200D02*
X86132858Y-77706961D01*
X86132858Y-77706961D02*
X86132858Y-77659342D01*
X86132858Y-77659342D02*
X86085239Y-77564104D01*
X86085239Y-77564104D02*
X85990001Y-77516485D01*
X85990001Y-77516485D02*
X85847144Y-77516485D01*
X85847144Y-77516485D02*
X85751906Y-77468866D01*
X85751906Y-77468866D02*
X85704287Y-77373628D01*
X85704287Y-77373628D02*
X85704287Y-77326009D01*
X85704287Y-77326009D02*
X85751906Y-77230771D01*
X85751906Y-77230771D02*
X85847144Y-77183152D01*
X85847144Y-77183152D02*
X85990001Y-77183152D01*
X85990001Y-77183152D02*
X86085239Y-77230771D01*
X86704287Y-77849819D02*
X86609049Y-77802200D01*
X86609049Y-77802200D02*
X86561430Y-77754580D01*
X86561430Y-77754580D02*
X86513811Y-77659342D01*
X86513811Y-77659342D02*
X86513811Y-77373628D01*
X86513811Y-77373628D02*
X86561430Y-77278390D01*
X86561430Y-77278390D02*
X86609049Y-77230771D01*
X86609049Y-77230771D02*
X86704287Y-77183152D01*
X86704287Y-77183152D02*
X86847144Y-77183152D01*
X86847144Y-77183152D02*
X86942382Y-77230771D01*
X86942382Y-77230771D02*
X86990001Y-77278390D01*
X86990001Y-77278390D02*
X87037620Y-77373628D01*
X87037620Y-77373628D02*
X87037620Y-77659342D01*
X87037620Y-77659342D02*
X86990001Y-77754580D01*
X86990001Y-77754580D02*
X86942382Y-77802200D01*
X86942382Y-77802200D02*
X86847144Y-77849819D01*
X86847144Y-77849819D02*
X86704287Y-77849819D01*
X87466192Y-77849819D02*
X87466192Y-77183152D01*
X87466192Y-77373628D02*
X87513811Y-77278390D01*
X87513811Y-77278390D02*
X87561430Y-77230771D01*
X87561430Y-77230771D02*
X87656668Y-77183152D01*
X87656668Y-77183152D02*
X87751906Y-77183152D01*
X88609049Y-77849819D02*
X88037621Y-77849819D01*
X88323335Y-77849819D02*
X88323335Y-76849819D01*
X88323335Y-76849819D02*
X88228097Y-76992676D01*
X88228097Y-76992676D02*
X88132859Y-77087914D01*
X88132859Y-77087914D02*
X88037621Y-77135533D01*
D12*
%TO.C,3.3V_Relais1*%
X62780000Y-23870000D02*
X62780000Y-29010000D01*
X60120000Y-29010000D02*
X62780000Y-29010000D01*
X60120000Y-23870000D02*
X62780000Y-23870000D01*
X60120000Y-23870000D02*
X60120000Y-29010000D01*
X60120000Y-22600000D02*
X60120000Y-21270000D01*
X60120000Y-21270000D02*
X61450000Y-21270000D01*
%TO.C,power_out1*%
X63925000Y-35505000D02*
X66525000Y-35505000D01*
X66525000Y-38165000D02*
X66525000Y-35505000D01*
X63925000Y-38165000D02*
X63925000Y-35505000D01*
X63925000Y-38165000D02*
X66525000Y-38165000D01*
X62655000Y-38165000D02*
X61325000Y-38165000D01*
X61325000Y-38165000D02*
X61325000Y-36835000D01*
%TO.C,J1*%
X139817500Y-43507500D02*
G75*
G02*
X142877500Y-46567500I0J-3060000D01*
G01*
X77757500Y-46567500D02*
G75*
G02*
X80817500Y-43507500I3060000J0D01*
G01*
X142877500Y-70567500D02*
G75*
G02*
X139817500Y-73627500I-3059999J-1D01*
G01*
X80817500Y-73627500D02*
G75*
G02*
X77757500Y-70567500I-1J3059999D01*
G01*
X135877500Y-41707500D02*
X127757500Y-41707500D01*
X127757500Y-41707500D02*
X127757500Y-43507500D01*
X123277500Y-41707500D02*
X115157500Y-41707500D01*
X115157500Y-41707500D02*
X115157500Y-43507500D01*
X95927500Y-42807500D02*
X84507500Y-42807500D01*
X84507500Y-42807500D02*
X84507500Y-43507500D01*
X139817500Y-43507500D02*
X135877500Y-43507500D01*
X135877500Y-43507500D02*
X135877500Y-41707500D01*
X127757500Y-43507500D02*
X123277500Y-43507500D01*
X123277500Y-43507500D02*
X123277500Y-41707500D01*
X115157500Y-43507500D02*
X95927500Y-43507500D01*
X95927500Y-43507500D02*
X95927500Y-42807500D01*
X84507500Y-43507500D02*
X80817500Y-43507500D01*
X144077500Y-50007500D02*
X142877500Y-50007500D01*
X142877500Y-50007500D02*
X142877500Y-46567500D01*
X144077500Y-67127500D02*
X144077500Y-50007500D01*
X142877500Y-67127500D02*
X144077500Y-67127500D01*
X142877500Y-67127500D02*
X142877500Y-70567500D01*
X87457500Y-67467500D02*
X135777500Y-67467500D01*
X84857500Y-67467500D02*
X86187500Y-67467500D01*
X84857500Y-68797500D02*
X84857500Y-67467500D01*
X87457500Y-70067500D02*
X87457500Y-67467500D01*
X84857500Y-70067500D02*
X87457500Y-70067500D01*
X77757500Y-70567500D02*
X77757500Y-46567500D01*
X135777500Y-72667500D02*
X135777500Y-67467500D01*
X84857500Y-72667500D02*
X84857500Y-70067500D01*
X84857500Y-72667500D02*
X135777500Y-72667500D01*
X139817500Y-73627500D02*
X80817500Y-73627500D01*
D10*
%TO.C,LoRa-module1*%
X106920000Y-20320000D02*
X106920000Y-40820000D01*
X78420000Y-40820000D02*
X106920000Y-40820000D01*
X78420000Y-20320000D02*
X106920000Y-20320000D01*
X78420000Y-20320000D02*
X78420000Y-40820000D01*
D12*
%TO.C,AC220V_inlet1*%
X58790000Y-114870000D02*
X58790000Y-107250000D01*
X58790000Y-113600000D02*
X48630000Y-113600000D01*
X58790000Y-107250000D02*
X48630000Y-107250000D01*
X48630000Y-114870000D02*
X58790000Y-114870000D01*
X48630000Y-107250000D02*
X48630000Y-114870000D01*
%TO.C,U2*%
X43985000Y-30955000D02*
X43985000Y-29555000D01*
X43995000Y-30955000D02*
X45765000Y-30955000D01*
X45765000Y-30955000D02*
X45765000Y-20285000D01*
X41745000Y-29555000D02*
X41745000Y-21675000D01*
X43985000Y-29555000D02*
X41745000Y-29555000D01*
X41745000Y-21675000D02*
X43985000Y-21675000D01*
X43985000Y-21675000D02*
X43985000Y-20285000D01*
X45765000Y-20285000D02*
X43985000Y-20285000D01*
%TO.C,LED_traffic_light1*%
X89450000Y-81450000D02*
X89450000Y-89130000D01*
X86790000Y-89130000D02*
X89450000Y-89130000D01*
X86790000Y-81450000D02*
X89450000Y-81450000D01*
X86790000Y-81450000D02*
X86790000Y-89130000D01*
X86790000Y-80180000D02*
X86790000Y-78850000D01*
X86790000Y-78850000D02*
X88120000Y-78850000D01*
%TO.C,PS1*%
X33932500Y-40687500D02*
X69552500Y-40687500D01*
X69552500Y-100307500D02*
X69552500Y-40687500D01*
X33932500Y-100307500D02*
X33932500Y-40687500D01*
X33932500Y-100307500D02*
X69552500Y-100307500D01*
X36692500Y-100547500D02*
X33692500Y-100547500D01*
X33692500Y-100547500D02*
X33692500Y-97547500D01*
%TO.C,AC220V_outlet1*%
X71790000Y-114870000D02*
X71790000Y-107250000D01*
X71790000Y-113600000D02*
X61630000Y-113600000D01*
X71790000Y-107250000D02*
X61630000Y-107250000D01*
X61630000Y-114870000D02*
X71790000Y-114870000D01*
X61630000Y-107250000D02*
X61630000Y-114870000D01*
%TO.C,REF\u002A\u002A*%
D10*
X75890000Y-95690000D02*
X145890000Y-95690000D01*
X145890000Y-112690000D01*
X75890000Y-112690000D01*
X75890000Y-95690000D01*
D12*
%TO.C,temperature_sensor1*%
X81320000Y-81625000D02*
X81320000Y-86765000D01*
X78660000Y-86765000D02*
X81320000Y-86765000D01*
X78660000Y-81625000D02*
X81320000Y-81625000D01*
X78660000Y-81625000D02*
X78660000Y-86765000D01*
X78660000Y-80355000D02*
X78660000Y-79025000D01*
X78660000Y-79025000D02*
X79990000Y-79025000D01*
%TD*%
M02*
